<svg
  fill="none"
  height="266"
  viewBox="0 0 316 266"
  width="316"
  xmlns="http://www.w3.org/2000/svg"
>
  <title>Xbase circle logo</title>
  <path
    d="M0 159.674V106.512C0 78.0091 10.5769 52.9149 31.7308 31.2288C53.7695 10.4094 79.2021 0 108.039 0H207.198C236.034 0 261.529 10.4094 283.693 31.2288C304.722 52.9149 315.236 78.0091 315.236 106.512V159.674C315.236 188.052 304.722 213.085 283.693 234.771C261.529 255.59 236.034 266 207.198 266H108.039C79.2021 266 53.7695 255.59 31.7308 234.771C10.5769 213.085 0 188.052 0 159.674ZM54.0194 106.512V159.674C54.0194 174.297 59.3078 186.813 69.8848 197.223C80.4617 207.632 93.178 212.837 108.039 212.837H207.198C222.053 212.837 234.775 207.632 245.352 197.223C255.929 186.813 261.217 174.297 261.217 159.674V106.512C261.217 91.7647 255.929 79.1863 245.352 68.7769C234.775 58.3675 222.053 53.1628 207.198 53.1628H108.039C93.178 53.1628 80.4617 58.3675 69.8848 68.7769C59.3078 79.1863 54.0194 91.7647 54.0194 106.512Z"
    fill="#0080FF"
  />
  <path
    d="M159.963 202.552L234.407 91.5176H85.5234L159.963 202.552Z"
    fill="#C41F25"
  />
</svg>
