<svg
  fill="none"
  height="18"
  viewBox="0 0 143 18"
  width="143"
  xmlns="http://www.w3.org/2000/svg"
>
  <title>Xbase text logo</title>
  <path
    d="M15.5243 0H20.2123L12.444 8.7869L20.2123 17.5615H15.5243L10.1 11.4377L4.68798 17.5615H0L7.75604 8.7869L0 0H4.68798L10.1 6.13611L15.5243 0Z"
    fill="#0084FF"
  />
  <path
    d="M22.679 10.5418V7.03198C22.679 5.15024 23.3663 3.49349 24.7408 2.06173C26.1725 0.687244 27.8252 0 29.6988 0H36.1417C38.0152 0 39.672 0.687244 41.1119 2.06173C42.3882 3.36259 43.0714 4.92116 43.1614 6.73744H39.6392C39.5411 5.81294 39.1606 5.04388 38.4979 4.43027C37.8434 3.81666 37.058 3.50985 36.1417 3.50985H29.6988C28.7333 3.50985 27.907 3.85347 27.2198 4.54072C26.5325 5.22796 26.1889 6.05838 26.1889 7.03198V10.5418C26.1889 11.5072 26.5325 12.3336 27.2198 13.0208C27.907 13.7081 28.7333 14.0517 29.6988 14.0517H36.1417C37.058 14.0517 37.8434 13.7449 38.4979 13.1313C39.1606 12.5177 39.5411 11.7527 39.6392 10.8364H43.1614C43.0714 12.6445 42.3882 14.1989 41.1119 15.4998C39.672 16.8743 38.0152 17.5615 36.1417 17.5615H29.6988C27.8252 17.5615 26.1725 16.8743 24.7408 15.4998C23.3663 14.068 22.679 12.4154 22.679 10.5418Z"
    fill="#0084FF"
  />
  <path
    d="M45.6281 10.5418V7.03198C45.6281 5.15024 46.3153 3.49349 47.6898 2.06173C49.1216 0.687244 50.7742 0 52.6478 0H59.0907C60.9643 0 62.621 0.687244 64.0609 2.06173C65.4272 3.49349 66.1104 5.15024 66.1104 7.03198V10.5418C66.1104 12.4154 65.4272 14.068 64.0609 15.4998C62.621 16.8743 60.9643 17.5615 59.0907 17.5615H52.6478C50.7742 17.5615 49.1216 16.8743 47.6898 15.4998C46.3153 14.068 45.6281 12.4154 45.6281 10.5418ZM49.1379 7.03198V10.5418C49.1379 11.5072 49.4816 12.3336 50.1688 13.0208C50.856 13.7081 51.6824 14.0517 52.6478 14.0517H59.0907C60.0561 14.0517 60.8824 13.7081 61.5697 13.0208C62.2569 12.3336 62.6006 11.5072 62.6006 10.5418V7.03198C62.6006 6.05838 62.2569 5.22796 61.5697 4.54072C60.8824 3.85347 60.0561 3.50985 59.0907 3.50985H52.6478C51.6824 3.50985 50.856 3.85347 50.1688 4.54072C49.4816 5.22796 49.1379 6.05838 49.1379 7.03198Z"
    fill="#0084FF"
  />
  <path
    d="M72.087 4.1971V17.5615H68.5771V0H72.8356L86.4332 13.3767V0H89.943V17.5615H85.6846L72.087 4.1971Z"
    fill="#0084FF"
  />
  <path d="M92.4098 0H95.9196V17.5615H92.4098V0Z" fill="#0084FF" />
  <path
    d="M98.374 10.5418V7.03198C98.374 5.15024 99.0613 3.49349 100.436 2.06173C101.868 0.687244 103.52 0 105.394 0H111.837C113.71 0 115.367 0.687244 116.807 2.06173C118.083 3.36259 118.766 4.92116 118.856 6.73744H115.334C115.236 5.81294 114.856 5.04388 114.193 4.43027C113.538 3.81666 112.753 3.50985 111.837 3.50985H105.394C104.428 3.50985 103.602 3.85347 102.915 4.54072C102.228 5.22796 101.884 6.05838 101.884 7.03198V10.5418C101.884 11.5072 102.228 12.3336 102.915 13.0208C103.602 13.7081 104.428 14.0517 105.394 14.0517H111.837C112.753 14.0517 113.538 13.7449 114.193 13.1313C114.856 12.5177 115.236 11.7527 115.334 10.8364H118.856C118.766 12.6445 118.083 14.1989 116.807 15.4998C115.367 16.8743 113.71 17.5615 111.837 17.5615H105.394C103.52 17.5615 101.868 16.8743 100.436 15.4998C99.0613 14.068 98.374 12.4154 98.374 10.5418Z"
    fill="#0084FF"
  />
  <path
    d="M123.127 9.20416C122.563 8.72145 122.121 8.13648 121.802 7.44923C121.483 6.75381 121.323 6.02566 121.323 5.26478C121.323 4.29936 121.56 3.41986 122.035 2.62625C122.509 1.82447 123.143 1.18631 123.937 0.711788C124.739 0.237263 125.622 0 126.588 0H141.216V3.50985H126.588C126.105 3.50985 125.692 3.68166 125.348 4.02529C125.005 4.36891 124.833 4.78207 124.833 5.26478C124.833 5.74749 125.021 6.16883 125.397 6.52882C125.692 6.76608 126.068 6.91335 126.527 6.97062C126.985 7.01971 127.496 7.04425 128.061 7.04425C128.159 7.04425 128.257 7.04425 128.355 7.04425H128.367C129.742 7.06879 131.116 7.07289 132.491 7.05652H132.896C133.567 7.04834 134.233 7.03607 134.896 7.0197C135.125 7.0197 135.358 7.01561 135.596 7.00743C136.144 6.99107 136.721 7.01561 137.326 7.08107C137.94 7.14652 138.549 7.32242 139.155 7.60877C140.668 8.38601 141.601 9.61732 141.953 11.3027C142.1 12.0963 142.075 12.8776 141.879 13.6467C141.666 14.4648 141.278 15.1889 140.713 15.8189C140.206 16.3752 139.617 16.8047 138.946 17.1075C138.275 17.4102 137.571 17.5615 136.835 17.5615H121.912V14.0517H136.835C137.31 14.0517 137.731 13.8594 138.099 13.4749C138.476 13.0495 138.611 12.5463 138.504 11.9654C138.39 11.4091 138.091 11.0082 137.608 10.7627C137.085 10.55 136.434 10.4682 135.657 10.5173C135.428 10.5255 135.199 10.5296 134.97 10.5296C134.299 10.5459 133.616 10.5582 132.92 10.5664H132.515C131.116 10.5909 129.709 10.5868 128.294 10.5541C128.204 10.5541 128.114 10.5541 128.024 10.5541C127.263 10.5705 126.453 10.5091 125.594 10.37C124.743 10.2228 123.921 9.83413 123.127 9.20416Z"
    fill="#0084FF"
  />
  <path
    d="M56.0208 13.3729L60.8577 6.04232H51.1838L56.0208 13.3729Z"
    fill="#D92727"
  />
</svg>
