<svg
  fill="none"
  height="180"
  viewBox="0 0 226 180"
  width="226"
  xmlns="http://www.w3.org/2000/svg"
>
  <title>Account access restricted illustration</title>
  <path
    d="M0.393555 14.1577V177.59C0.393555 178.704 1.29679 179.607 2.41083 179.607H223.517C224.631 179.607 225.535 178.704 225.535 177.59V14.1577C225.535 6.55582 219.372 0.393311 211.77 0.393311H14.158C6.55604 0.393311 0.393555 6.55582 0.393555 14.1577Z"
    fill="white"
  />
  <path
    d="M223.517 180H2.41056C1.08152 180 0 178.919 0 177.59V14.1577C0 6.35128 6.35126 0 14.1577 0H211.77C219.576 0 225.928 6.35128 225.928 14.1577V177.59C225.928 178.919 224.846 180 223.517 180ZM14.1577 0.786569C6.78466 0.786569 0.786569 6.78468 0.786569 14.1577V177.59C0.786569 178.485 1.51492 179.213 2.41056 179.213H223.517C224.413 179.213 225.141 178.485 225.141 177.59V14.1577C225.141 6.78468 219.143 0.786569 211.77 0.786569H14.1577Z"
    fill="#161950"
  />
  <path
    d="M223.517 16.5683H2.41056C1.08152 16.5683 0 15.487 0 14.1577C0 6.35102 6.35126 0 14.1577 0H211.77C219.576 0 225.928 6.35102 225.928 14.1577C225.928 15.4868 224.846 16.5683 223.517 16.5683ZM14.1577 0.786569C6.78466 0.786569 0.786569 6.78468 0.786569 14.1577C0.786569 15.0534 1.51492 15.7817 2.41056 15.7817H223.517C224.413 15.7817 225.141 15.0534 225.141 14.1577C225.141 6.78468 219.143 0.786569 211.77 0.786569H14.1577Z"
    fill="#161950"
  />
  <path
    d="M34.6611 9.27903C35.183 8.01906 34.5847 6.57456 33.3247 6.05265C32.0647 5.53074 30.6202 6.12905 30.0983 7.38903C29.5764 8.64901 30.1747 10.0935 31.4347 10.6154C32.6947 11.1373 34.1392 10.539 34.6611 9.27903Z"
    fill="#161950"
  />
  <path
    d="M26.082 9.279C26.6039 8.01903 26.0056 6.57453 24.7456 6.05262C23.4856 5.53071 22.0411 6.12902 21.5192 7.389C20.9973 8.64898 21.5956 10.0935 22.8556 10.6154C24.1156 11.1373 25.5601 10.539 26.082 9.279Z"
    fill="#161950"
  />
  <path
    d="M17.5048 9.27903C18.0268 8.01906 17.4284 6.57453 16.1685 6.05262C14.9085 5.53071 13.464 6.12905 12.9421 7.38903C12.4202 8.64901 13.0185 10.0935 14.2785 10.6154C15.5384 11.1373 16.9829 10.539 17.5048 9.27903Z"
    fill="#161950"
  />
  <path
    d="M201.431 163.025H103.483C98.4887 163.025 94.4395 158.976 94.4395 153.981V93.9229C94.4395 88.9279 98.4885 84.8789 103.483 84.8789H201.431C206.426 84.8789 210.475 88.9279 210.475 93.9229V153.981C210.475 158.976 206.426 163.025 201.431 163.025Z"
    fill="#E8F0FE"
  />
  <path
    d="M171.437 112.059C174.941 110.607 176.605 106.59 175.153 103.086C173.702 99.5817 169.685 97.9177 166.181 99.3692C162.677 100.821 161.013 104.838 162.464 108.342C163.916 111.846 167.933 113.51 171.437 112.059Z"
    fill="white"
  />
  <path
    d="M210.475 146.122V153.979C210.475 158.976 206.426 163.025 201.429 163.025H103.486C98.4899 163.025 94.4404 158.976 94.4404 153.979V144.18L95.1413 142.764L112.13 108.432C114.806 103.018 120.607 99.5613 126.992 99.5613C130.212 99.5613 133.277 100.442 135.872 102C138.468 103.563 140.585 105.813 141.915 108.546L161.073 148.111L161.518 149.025C163.086 152.274 166.344 153.899 169.603 153.899C172.847 153.899 176.091 152.288 177.673 149.063L184.261 135.631C186.123 131.828 190.191 129.389 194.676 129.389C196.878 129.389 198.981 129.977 200.776 131.033C202.571 132.089 204.049 133.604 205.001 135.461L209.055 143.356L210.475 146.122Z"
    fill="white"
  />
  <path
    d="M73.8795 40.5461V82.9689C73.8795 85.9516 71.4616 88.3698 68.4787 88.3698H21.059C18.0764 88.3698 15.6582 85.9518 15.6582 82.9689V40.5461C15.6582 37.5634 18.0761 35.1453 21.059 35.1453H68.4787C71.4616 35.1455 73.8795 37.5634 73.8795 40.5461Z"
    fill="#E8F0FE"
  />
  <path
    d="M67.9035 53.0685C68.2573 50.8885 66.7768 48.8344 64.5967 48.4806C62.4167 48.1268 60.3626 49.6072 60.0088 51.7873C59.655 53.9673 61.1354 56.0214 63.3155 56.3752C65.4955 56.7291 67.5496 55.2486 67.9035 53.0685Z"
    fill="white"
  />
  <path
    d="M72.5261 91.3873H18.5383C17.1665 91.3873 16.2691 89.95 16.8713 88.7174C20.9762 80.3153 25.0813 71.9134 29.1861 63.5113C31.873 58.0759 37.6973 54.6047 44.1044 54.6047C47.337 54.6047 50.4127 55.4912 53.0181 57.0531C55.6232 58.6217 57.7475 60.8823 59.0844 63.6241L72.5261 91.3873Z"
    fill="white"
  />
  <path
    d="M210.476 35.538H91.5534C91.3363 35.538 91.1602 35.3621 91.1602 35.1447C91.1602 34.9274 91.3363 34.7515 91.5534 34.7515H210.476C210.693 34.7515 210.869 34.9274 210.869 35.1447C210.869 35.3618 210.693 35.538 210.476 35.538Z"
    fill="#E8F0FE"
  />
  <path
    d="M210.476 47.4995H91.5534C91.3363 47.4995 91.1602 47.3235 91.1602 47.1062C91.1602 46.8888 91.3363 46.7129 91.5534 46.7129H210.476C210.693 46.7129 210.869 46.8888 210.869 47.1062C210.869 47.3233 210.693 47.4995 210.476 47.4995Z"
    fill="#E8F0FE"
  />
  <path
    d="M210.476 59.4614H91.5534C91.3363 59.4614 91.1602 59.2854 91.1602 59.0681C91.1602 58.8507 91.3363 58.6748 91.5534 58.6748H210.476C210.693 58.6748 210.869 58.8507 210.869 59.0681C210.869 59.2852 210.693 59.4614 210.476 59.4614Z"
    fill="#E8F0FE"
  />
  <path
    d="M210.476 71.4228H91.5534C91.3363 71.4228 91.1602 71.2469 91.1602 71.0295C91.1602 70.8122 91.3363 70.6362 91.5534 70.6362H210.476C210.693 70.6362 210.869 70.8122 210.869 71.0295C210.869 71.2466 210.693 71.4228 210.476 71.4228Z"
    fill="#E8F0FE"
  />
  <path
    d="M68.6607 127.533H15.4519C15.2345 127.533 15.0586 127.357 15.0586 127.14C15.0586 126.923 15.2345 126.747 15.4519 126.747H68.6607C68.8778 126.747 69.0539 126.923 69.0539 127.14C69.0539 127.357 68.8778 127.533 68.6607 127.533Z"
    fill="#E8F0FE"
  />
  <path
    d="M68.6607 139.495H15.4519C15.2345 139.495 15.0586 139.319 15.0586 139.102C15.0586 138.884 15.2345 138.708 15.4519 138.708H68.6607C68.8778 138.708 69.0539 138.884 69.0539 139.102C69.0539 139.319 68.8778 139.495 68.6607 139.495Z"
    fill="#E8F0FE"
  />
  <path
    d="M68.6607 151.456H15.4519C15.2345 151.456 15.0586 151.281 15.0586 151.063C15.0586 150.846 15.2345 150.67 15.4519 150.67H68.6607C68.8778 150.67 69.0539 150.846 69.0539 151.063C69.0539 151.28 68.8778 151.456 68.6607 151.456Z"
    fill="#E8F0FE"
  />
  <path
    d="M68.6607 163.418H15.4519C15.2345 163.418 15.0586 163.242 15.0586 163.025C15.0586 162.808 15.2345 162.632 15.4519 162.632H68.6607C68.8778 162.632 69.0539 162.808 69.0539 163.025C69.0539 163.242 68.8778 163.418 68.6607 163.418Z"
    fill="#E8F0FE"
  />
  <path
    d="M151.509 90.4446C151.509 100.374 147.677 109.419 141.395 116.214C140.502 117.179 139.56 118.1 138.573 118.971C131.736 125 122.72 128.663 112.837 128.663C91.4792 128.663 74.1641 111.551 74.1641 90.4449C74.1641 80.6779 77.8708 71.7681 83.9716 65.0111C84.852 64.0351 85.7842 63.1048 86.7608 62.2219C93.6372 56.0139 102.789 52.2266 112.837 52.2266C134.194 52.2266 151.509 69.3381 151.509 90.4446Z"
    fill="white"
  />
  <path
    d="M113.245 129.071C91.6955 129.071 74.1641 111.744 74.1641 90.4449C74.1641 80.9471 77.6846 71.8173 84.0769 64.7375C84.9538 63.7656 85.9021 62.8171 86.8952 61.9192C94.1097 55.4058 103.468 51.8188 113.245 51.8188C134.794 51.8188 152.325 69.1465 152.325 90.4451C152.325 100.111 148.695 109.361 142.103 116.492C141.194 117.473 140.235 118.41 139.251 119.277C132.089 125.593 122.853 129.071 113.245 129.071ZM113.245 52.6351C103.67 52.6351 94.5068 56.1475 87.4428 62.5248C86.4704 63.4042 85.5417 64.3328 84.683 65.2846C78.4263 72.2142 74.9806 81.1496 74.9806 90.4449C74.9806 111.293 92.1457 128.255 113.245 128.255C122.654 128.255 131.698 124.849 138.711 118.665C139.674 117.816 140.614 116.898 141.504 115.937C147.956 108.958 151.509 99.9045 151.509 90.4451C151.509 69.5964 134.344 52.6351 113.245 52.6351Z"
    fill="#292929"
  />
  <path
    d="M147.179 90.4446C147.179 99.1139 143.833 107.011 138.349 112.944C137.569 113.786 136.747 114.591 135.885 115.35C129.915 120.614 122.043 123.813 113.414 123.813C94.7673 123.813 79.6494 108.872 79.6494 90.4443C79.6494 81.9169 82.8858 74.1376 88.2123 68.2383C88.9812 67.3861 89.7949 66.5739 90.6474 65.8029C96.651 60.3828 104.642 57.0762 113.414 57.0762C132.062 57.0764 147.179 72.0166 147.179 90.4446Z"
    fill="#465FFF"
  />
  <path
    d="M138.014 112.944C137.234 113.787 136.412 114.591 135.55 115.35L87.8779 68.2386C88.6468 67.3865 89.4606 66.5743 90.3131 65.8032L138.014 112.944Z"
    fill="white"
  />
  <path
    d="M138.014 114.246C137.234 115.089 136.412 115.893 135.55 116.653L87.8779 69.5409C88.6468 68.6887 89.4606 67.8765 90.3131 67.1055L138.014 114.246Z"
    fill="white"
  />
  <path
    d="M112.936 67.4307H112.843C106.63 67.4307 101.592 72.4686 101.592 78.6823V86.4774H124.188V78.6823C124.188 72.4686 119.15 67.4307 112.936 67.4307ZM119.792 83.8645H105.987V79.0987C105.987 75.3046 109.063 72.2264 112.86 72.2264H112.917C116.716 72.2264 119.792 75.3046 119.792 79.0987V83.8645Z"
    fill="white"
  />
  <path
    d="M125.004 86.8852H101.592V78.6819C101.592 72.2526 106.822 67.022 113.252 67.022H113.344C119.774 67.022 125.004 72.2526 125.004 78.6819V86.8852ZM102.408 86.0687H124.188V78.6819C124.188 72.7028 119.323 67.8385 113.344 67.8385H113.252C107.273 67.8385 102.408 72.7028 102.408 78.6819V86.0687ZM120.609 84.2723H105.987V79.0983C105.987 75.0838 109.253 71.8177 113.268 71.8177H113.325C117.341 71.8177 120.609 75.0838 120.609 79.0983V84.2723ZM106.804 83.4558H119.792V79.0983C119.792 75.5339 116.891 72.6342 113.325 72.6342H113.268C109.704 72.6342 106.804 75.5339 106.804 79.0983V83.4558Z"
    fill="#292929"
  />
  <path
    d="M125.297 108.888H101.051C98.8253 108.888 97.0205 107.083 97.0205 104.857V86.4008C97.0205 84.1747 98.8253 82.3699 101.051 82.3699H125.297C127.523 82.3699 129.327 84.1747 129.327 86.4008V104.857C129.327 107.083 127.523 108.888 125.297 108.888Z"
    fill="white"
  />
  <path
    d="M125.705 109.296H101.46C99.012 109.296 97.0205 107.305 97.0205 104.857V86.4008C97.0205 83.9532 99.012 81.9617 101.46 81.9617H125.705C128.153 81.9617 130.144 83.9532 130.144 86.4008V104.857C130.144 107.305 128.153 109.296 125.705 109.296ZM101.46 82.7782C99.4622 82.7782 97.837 84.4033 97.837 86.4008V104.857C97.837 106.854 99.4622 108.48 101.46 108.48H125.705C127.702 108.48 129.327 106.854 129.327 104.857V86.4008C129.327 84.4033 127.702 82.7782 125.705 82.7782H101.46Z"
    fill="#292929"
  />
  <path
    d="M125.705 109.296H101.46C99.012 109.296 97.0205 107.305 97.0205 104.857V86.4008C97.0205 83.9532 99.012 81.9617 101.46 81.9617H125.705C128.153 81.9617 130.144 83.9532 130.144 86.4008V104.857C130.144 107.305 128.153 109.296 125.705 109.296ZM101.46 82.7782C99.4622 82.7782 97.837 84.4033 97.837 86.4008V104.857C97.837 106.854 99.4622 108.48 101.46 108.48H125.705C127.702 108.48 129.327 106.854 129.327 104.857V86.4008C129.327 84.4033 127.702 82.7782 125.705 82.7782H101.46Z"
    fill="#292929"
  />
  <path
    d="M113.048 103.285C112.275 103.285 111.647 102.658 111.647 101.884V97.4958H114.449V101.884C114.449 102.658 113.822 103.285 113.048 103.285Z"
    fill="#292929"
  />
  <path
    d="M114.856 97.8695H110.946C110.324 97.8695 109.819 97.3652 109.819 96.743V93.3936C109.819 92.7714 110.324 92.2671 110.946 92.2671H114.856C115.478 92.2671 115.982 92.7714 115.982 93.3936V96.743C115.982 97.3652 115.478 97.8695 114.856 97.8695Z"
    fill="#292929"
  />
</svg>
