<svg
  fill="none"
  height="181"
  viewBox="0 0 253 181"
  width="253"
  xmlns="http://www.w3.org/2000/svg"
>
  <title>Coming soon illustration</title>
  <path
    d="M129.711 103.141C129.558 101.888 129.555 100.627 129.702 99.3741L130.862 89.5033C130.958 88.6882 131.62 88.0709 132.426 88.011C132.384 88.008 132.342 87.999 132.297 87.999H127.814C126.951 87.999 126.223 88.6463 126.121 89.5033L124.961 99.3741C124.815 100.627 124.818 101.888 124.97 103.141C125.6 108.295 127.326 122.709 127.757 128.903C127.841 130.11 128.845 131.045 130.056 131.045C131.266 131.045 132.27 130.11 132.354 128.903C132.375 128.606 132.399 128.285 132.426 127.953C131.902 121.345 130.31 108.049 129.711 103.141Z"
    fill="#E8F0FE"
    opacity="0.5"
  />
  <path
    d="M98.7969 140.037C101.284 134.445 106.489 130.331 112.737 129.372L113.223 131.044C113.223 131.044 105.752 134.454 104.209 142.581L98.7969 140.037Z"
    fill="#E8F0FE"
    opacity="0.5"
  />
  <path
    d="M209.713 169.941C209.188 166.327 207.837 162.776 205.613 159.572C199.968 151.443 190.259 147.817 181.122 149.528L182.339 156.929C182.339 156.929 198.155 151.308 209.713 169.941Z"
    fill="#E8F0FE"
    opacity="0.5"
  />
  <path
    d="M152.776 143.205C154.913 141.392 157.622 140.241 160.561 139.672C170.495 137.754 180.102 144.251 182.02 154.182C182.562 156.986 182.433 159.761 181.744 162.347C181.744 162.347 171.133 135.294 147.586 150.84C147.586 150.84 149.186 146.253 152.776 143.205Z"
    fill="#E8F0FE"
    opacity="0.5"
  />
  <path
    d="M159.031 141.093C158.627 141.093 158.243 140.859 158.069 140.466C155.666 135.067 150.755 131.309 144.932 130.413C144.357 130.326 143.964 129.787 144.051 129.211C144.138 128.636 144.677 128.246 145.253 128.33C151.788 129.334 157.299 133.55 159.993 139.609C160.23 140.14 159.99 140.763 159.46 141C159.319 141.063 159.175 141.093 159.031 141.093Z"
    fill="#465FFF"
  />
  <path
    d="M142.098 164.271C144.774 165.413 147.905 165.461 150.758 164.148C153.446 162.911 155.376 160.696 156.32 158.119C156.32 158.119 156.958 172.823 136.878 168.299L142.098 164.271Z"
    fill="#E8F0FE"
    opacity="0.5"
  />
  <path
    d="M102.101 164.425C97.279 164.425 93.3564 160.502 93.3564 155.681C93.3564 155.099 93.8269 154.626 94.4083 154.626C94.9896 154.626 95.4601 155.096 95.4601 155.681C95.4601 159.34 98.4387 162.318 102.098 162.318C102.679 162.318 103.149 162.789 103.149 163.37C103.155 163.954 102.685 164.425 102.101 164.425Z"
    fill="#465FFF"
  />
  <path
    d="M77.3104 149.66C68.1738 147.952 57.8625 151.443 52.2169 159.572C49.9904 162.776 48.642 166.327 48.1175 169.941C48.1175 169.941 48.0246 174.259 49.0165 176.695C49.0165 176.695 53.2597 157.022 75.3447 156.995L77.3104 149.66Z"
    fill="#E8F0FE"
    opacity="0.5"
  />
  <path
    d="M128.004 116.238C122.781 118.612 118.22 122.816 115.838 129.235C114.945 131.641 114.429 134.08 114.259 136.459C113.587 134.554 113.222 132.507 113.222 130.373C113.222 124.683 115.817 119.597 119.886 116.238H128.004Z"
    fill="#E8F0FE"
    opacity="0.5"
  />
  <path
    d="M105.052 143.204C102.307 142.647 99.391 142.713 96.5083 143.516C86.7633 146.231 81.0638 156.33 83.7757 166.075C84.5428 168.825 85.8973 171.253 87.6653 173.26C87.6653 173.26 78.5436 171.51 76.0834 162.347C75.3912 159.764 75.2683 156.983 75.8077 154.181C77.7256 144.247 87.3327 137.751 97.2664 139.672C100.206 140.238 102.843 141.478 105.052 143.204Z"
    fill="#E8F0FE"
    opacity="0.5"
  />
  <path
    d="M114.77 145.721C114.003 146.71 113.583 147.855 113.481 149.014C113.583 148.855 113.691 148.697 113.811 148.544C115.939 145.799 119.888 145.301 122.633 147.429C124.389 148.789 125.219 150.896 125.036 152.958C126.771 150.249 126.184 146.617 123.592 144.606C120.847 142.479 116.898 142.976 114.77 145.721Z"
    fill="#E8F0FE"
    opacity="0.5"
  />
  <path
    d="M136.593 158.917C136.593 158.917 139.778 165.701 134.672 168.302C134.672 168.302 141.079 166.252 142.103 164.271C142.103 164.271 136.913 159.809 136.593 158.917Z"
    fill="#E8F0FE"
    opacity="0.5"
  />
  <path
    d="M133.249 119.486C133.249 119.486 145.092 133.792 133.249 147.166C133.249 147.166 141.037 144.616 143.566 136.459C144.166 134.529 144.603 132.507 144.603 130.373C144.603 124.682 142.008 119.597 137.939 116.238L133.648 115.875L133.249 119.486Z"
    fill="#E8F0FE"
    opacity="0.5"
  />
  <path
    d="M76.0822 163.402C75.6177 163.402 75.1892 163.09 75.0663 162.62C74.3142 159.785 74.2153 156.881 74.7757 153.983C76.8014 143.495 86.9808 136.612 97.4689 138.638C100.507 139.225 103.279 140.484 105.704 142.375C106.162 142.731 106.243 143.393 105.886 143.852C105.53 144.31 104.868 144.394 104.409 144.035C102.249 142.351 99.7823 141.23 97.0734 140.705C87.733 138.902 78.6533 145.036 76.8493 154.382C76.3489 156.965 76.4388 159.554 77.107 162.077C77.2569 162.641 76.9212 163.216 76.3609 163.366C76.265 163.39 76.1721 163.402 76.0822 163.402Z"
    fill="#465FFF"
  />
  <path
    d="M98.8002 141.093C98.6564 141.093 98.5125 141.063 98.3747 141C97.8443 140.763 97.6046 140.143 97.8413 139.609C100.535 133.55 106.046 129.334 112.585 128.33C113.151 128.246 113.696 128.636 113.786 129.211C113.873 129.787 113.481 130.323 112.905 130.413C107.08 131.309 102.171 135.067 99.7681 140.466C99.5883 140.859 99.2047 141.093 98.8002 141.093Z"
    fill="#465FFF"
  />
  <path
    d="M114.26 137.511C113.825 137.511 113.417 137.242 113.268 136.807C112.539 134.742 112.171 132.576 112.171 130.37C112.171 124.569 114.742 119.121 119.219 115.423C119.668 115.052 120.331 115.118 120.702 115.564C121.074 116.014 121.008 116.676 120.561 117.048C116.567 120.344 114.278 125.198 114.278 130.37C114.278 132.339 114.607 134.269 115.254 136.109C115.446 136.657 115.159 137.26 114.61 137.451C114.493 137.493 114.376 137.511 114.26 137.511Z"
    fill="#465FFF"
  />
  <path
    d="M220.397 170.991H209.711C209.187 170.991 208.743 170.608 208.668 170.09C208.147 166.506 206.825 163.17 204.746 160.171C199.52 152.646 190.32 148.88 181.312 150.561C180.743 150.672 180.192 150.291 180.084 149.719C179.976 149.149 180.354 148.598 180.926 148.49C190.749 146.65 200.778 150.767 206.475 158.969C208.57 161.987 209.957 165.316 210.604 168.885H220.397C220.978 168.885 221.449 169.355 221.449 169.937C221.452 170.521 220.981 170.991 220.397 170.991Z"
    fill="#465FFF"
  />
  <path
    d="M181.741 163.402C181.651 163.402 181.561 163.39 181.469 163.366C180.905 163.216 180.573 162.641 180.722 162.077C181.394 159.554 181.48 156.965 180.98 154.382C179.176 145.036 170.099 138.896 160.756 140.705C158.047 141.23 155.578 142.348 153.417 144.035C152.959 144.394 152.297 144.31 151.94 143.852C151.583 143.393 151.664 142.731 152.123 142.375C154.547 140.484 157.316 139.225 160.357 138.638C170.846 136.612 181.025 143.495 183.051 153.983C183.611 156.881 183.512 159.788 182.76 162.62C182.634 163.093 182.209 163.402 181.741 163.402Z"
    fill="#465FFF"
  />
  <path
    d="M159.027 141.093C158.623 141.093 158.239 140.859 158.065 140.466C155.662 135.067 150.751 131.309 144.928 130.413C144.353 130.326 143.96 129.787 144.047 129.211C144.134 128.636 144.673 128.246 145.249 128.33C151.784 129.334 157.295 133.55 159.989 139.609C160.226 140.14 159.986 140.763 159.456 141C159.315 141.063 159.171 141.093 159.027 141.093Z"
    fill="#465FFF"
  />
  <path
    d="M143.57 137.511C143.453 137.511 143.336 137.493 143.219 137.451C142.671 137.26 142.383 136.657 142.575 136.109C143.222 134.269 143.552 132.339 143.552 130.37C143.552 125.198 141.262 120.344 137.268 117.048C136.818 116.676 136.755 116.014 137.127 115.564C137.499 115.118 138.161 115.052 138.61 115.423C143.09 119.121 145.658 124.569 145.658 130.37C145.658 132.576 145.29 134.742 144.562 136.807C144.409 137.242 144.004 137.511 143.57 137.511Z"
    fill="#465FFF"
  />
  <path
    d="M135.223 169.357C134.641 169.357 134.171 168.886 134.171 168.302C134.171 167.718 134.641 167.25 135.223 167.25C137.527 167.25 139.634 166.079 140.859 164.122C141.168 163.627 141.818 163.48 142.31 163.786C142.801 164.095 142.954 164.745 142.645 165.236C141.036 167.817 138.261 169.357 135.223 169.357Z"
    fill="#465FFF"
  />
  <path
    d="M146.297 166.189C144.924 166.189 143.549 165.946 142.224 165.455C139.285 164.37 136.941 162.203 135.632 159.357C135.389 158.829 135.62 158.203 136.147 157.96C136.675 157.717 137.301 157.948 137.544 158.476C138.619 160.81 140.54 162.587 142.952 163.48C145.365 164.37 147.981 164.268 150.318 163.192C152.661 162.114 154.441 160.184 155.328 157.759C155.529 157.214 156.134 156.932 156.68 157.133C157.225 157.334 157.507 157.939 157.306 158.485C156.224 161.439 154.055 163.792 151.199 165.107C149.638 165.826 147.969 166.189 146.297 166.189Z"
    fill="#465FFF"
  />
  <path
    d="M102.101 164.425C97.279 164.425 93.3564 160.502 93.3564 155.681C93.3564 155.099 93.8269 154.626 94.4083 154.626C94.9896 154.626 95.4601 155.096 95.4601 155.681C95.4601 159.34 98.4387 162.318 102.098 162.318C102.679 162.318 103.149 162.789 103.149 163.37C103.155 163.954 102.685 164.425 102.101 164.425Z"
    fill="#465FFF"
  />
  <path
    d="M112.689 87.8965L97.2231 92.1636C90.9063 93.9047 87.2085 100.446 88.9705 106.757L95.1944 129.043C95.5241 130.226 96.6028 131.045 97.8344 131.045C99.3477 131.045 100.573 129.819 100.573 128.306V111.908C100.573 108.231 103.252 105.103 106.884 104.534L119.88 102.505"
    fill="white"
  />
  <path
    d="M97.8326 132.097C96.1365 132.097 94.6352 130.955 94.1797 129.322L87.9558 107.036C87.0268 103.713 87.4523 100.228 89.1514 97.2252C90.8505 94.2226 93.6163 92.062 96.9426 91.1451L112.408 86.8779C112.962 86.7251 113.547 87.0517 113.703 87.6121C113.858 88.1725 113.529 88.7538 112.965 88.9066L97.4999 93.1738C94.7191 93.9409 92.4027 95.7479 90.9823 98.262C89.5619 100.776 89.2053 103.689 89.9815 106.47L96.2054 128.755C96.4092 129.481 97.0774 129.99 97.8296 129.99C98.7585 129.99 99.5167 129.232 99.5167 128.303V111.906C99.5167 107.68 102.546 104.141 106.72 103.491L119.714 101.462C120.286 101.375 120.825 101.765 120.918 102.34C121.008 102.916 120.616 103.455 120.04 103.545L107.044 105.574C103.904 106.062 101.623 108.726 101.623 111.906V128.303C101.626 130.395 99.9242 132.097 97.8326 132.097Z"
    fill="#465FFF"
  />
  <path
    d="M146.502 87.8965L161.965 92.1636C168.282 93.9047 171.98 100.446 170.218 106.757L163.994 129.043C163.664 130.226 162.585 131.045 161.354 131.045C159.84 131.045 158.615 129.819 158.615 128.306V111.908C158.615 108.231 155.936 105.103 152.304 104.534L139.308 102.505"
    fill="white"
  />
  <path
    d="M161.356 132.096C159.264 132.096 157.562 130.394 157.562 128.302V111.905C157.562 108.725 155.281 106.061 152.141 105.573L139.145 103.544C138.569 103.454 138.177 102.915 138.267 102.34C138.357 101.764 138.902 101.378 139.471 101.462L152.468 103.49C156.642 104.141 159.668 107.68 159.668 111.905V128.302C159.668 129.231 160.424 129.989 161.356 129.989C162.108 129.989 162.776 129.483 162.98 128.755L169.204 106.469C169.98 103.688 169.626 100.772 168.206 98.2613C166.785 95.7472 164.469 93.9432 161.685 93.1731L146.223 88.9059C145.662 88.7501 145.333 88.1718 145.489 87.6114C145.644 87.048 146.223 86.7214 146.783 86.8772L162.246 91.1444C165.572 92.0614 168.341 94.2219 170.037 97.2245C171.736 100.227 172.161 103.712 171.232 107.035L165.008 129.321C164.553 130.957 163.052 132.096 161.356 132.096Z"
    fill="#465FFF"
  />
  <path
    d="M93.2745 111.522C91.5125 105.211 95.2103 98.6693 101.527 96.9282L115.27 93.1375L112.69 87.8965L97.227 92.1636C90.9102 93.9047 87.2124 100.446 88.9744 106.757L95.1983 129.043C95.528 130.226 96.6067 131.045 97.8383 131.045C98.138 131.045 98.4197 130.985 98.6894 130.898L93.2745 111.522Z"
    fill="#E8F0FE"
    opacity="0.5"
  />
  <g opacity="0.5">
    <path
      d="M150.805 92.6611L166.267 96.9283C167.406 97.243 168.455 97.7164 169.404 98.3127C167.96 95.406 165.341 93.0927 161.964 92.1607L146.501 87.8936L139.31 102.502L145.483 103.467L150.805 92.6611Z"
      fill="#E8F0FE"
    />
    <path
      d="M162.659 117.455C162.659 114.38 160.783 111.692 158.044 110.562C158.245 111.24 158.356 111.953 158.356 112.69V129.087C158.356 130.601 159.581 131.826 161.094 131.826C161.67 131.826 162.209 131.641 162.656 131.329L162.659 117.455Z"
      fill="#E8F0FE"
    />
  </g>
  <path
    d="M139.232 115.876H119.958L117.86 109.47H141.333L139.232 115.876Z"
    fill="white"
  />
  <path
    d="M139.235 116.931H119.958C119.502 116.931 119.098 116.638 118.957 116.206L116.859 109.799C116.754 109.479 116.808 109.128 117.006 108.855C117.204 108.583 117.521 108.421 117.86 108.421H141.332C141.671 108.421 141.989 108.583 142.186 108.855C142.384 109.128 142.441 109.479 142.333 109.799L140.236 116.206C140.092 116.638 139.687 116.931 139.235 116.931ZM120.722 114.825H138.471L139.879 110.525H119.313L120.722 114.825Z"
    fill="#465FFF"
  />
  <path
    d="M157.463 36.0488C152.845 22.645 144.778 11.9052 138.507 5.00102C133.724 -0.264011 125.468 -0.264011 120.686 5.00102C114.414 11.9082 106.344 22.645 101.729 36.0488C95.3615 54.5348 102.383 84.5728 114.063 107.527C114.672 108.719 115.897 109.469 117.237 109.469H141.956C143.295 109.469 144.524 108.719 145.129 107.527C156.81 84.5728 163.831 54.5378 157.463 36.0488ZM141 44.4333C140.706 50.2347 135.992 54.9484 130.191 55.245C123.416 55.5897 117.848 50.022 118.193 43.2466C118.486 37.4452 123.2 32.7316 129.001 32.4379C135.777 32.0933 141.344 37.658 141 44.4333Z"
    fill="white"
  />
  <path
    d="M141.955 110.524H117.236C115.492 110.524 113.913 109.559 113.125 108.007C97.7611 77.8158 95.8313 49.9414 100.734 35.7075C105.456 21.9921 113.769 11.0545 119.906 4.29413C122.384 1.56423 125.917 0 129.597 0C133.277 0 136.81 1.56722 139.288 4.29413C145.428 11.0545 153.738 21.9951 158.46 35.7075C163.363 49.9414 161.433 77.8158 146.069 108.007C145.275 109.559 143.702 110.524 141.955 110.524ZM129.594 2.10361C126.508 2.10361 123.544 3.41613 121.464 5.70853C115.456 12.322 107.329 23.0139 102.724 36.3937C97.9679 50.2051 99.9187 77.4112 115.001 107.051C115.429 107.893 116.286 108.417 117.236 108.417H141.955C142.905 108.417 143.762 107.893 144.19 107.051C159.272 77.4112 161.226 50.2081 156.468 36.3937C151.859 23.0169 143.732 12.325 137.727 5.70853C135.644 3.41913 132.681 2.10361 129.594 2.10361ZM129.609 56.3121C126.307 56.3121 123.115 54.9996 120.775 52.6593C118.285 50.1691 116.957 46.717 117.137 43.19C117.458 36.8882 122.645 31.7011 128.944 31.3834C132.453 31.2096 135.923 32.5281 138.413 35.0213C140.903 37.5115 142.228 40.9606 142.048 44.4876C141.727 50.7894 136.54 55.9765 130.241 56.2972C130.032 56.3061 129.822 56.3121 129.609 56.3121ZM129.579 33.475C129.405 33.475 129.228 33.481 129.055 33.487C123.82 33.7537 119.507 38.0628 119.244 43.2979C119.097 46.2316 120.197 49.0993 122.267 51.17C124.335 53.2376 127.203 54.3254 130.136 54.1906C135.371 53.9239 139.684 49.6147 139.947 44.3797C140.094 41.446 138.994 38.5783 136.924 36.5106C134.979 34.5658 132.327 33.475 129.579 33.475Z"
    fill="#465FFF"
  />
  <path
    d="M149.759 96.986C119.775 91.9607 109.449 69.4262 109.068 56.379C108.892 49.5947 109.611 43.3168 111.442 38.0008C116.059 24.597 124.129 13.8572 130.398 6.95305C132.124 5.05021 134.309 3.84557 136.613 3.31817C131.762 -0.178862 124.884 0.381502 120.683 5.00526C114.411 11.9124 106.341 22.6492 101.727 36.053C99.8329 41.5488 99.1317 48.0664 99.3774 55.1144C99.3774 55.1384 99.3774 55.1624 99.3804 55.1864C100.001 72.0422 105.062 88.5445 112.206 103.731C112.311 103.953 112.416 104.175 112.523 104.397C113.027 105.451 113.539 106.5 114.061 107.528C114.669 108.721 115.895 109.47 117.234 109.47H123.773H141.953C143.293 109.47 144.521 108.721 145.126 107.528C146.838 104.166 148.444 100.651 149.927 97.0429L149.759 96.986Z"
    fill="#E8F0FE"
    opacity="0.5"
  />
  <path
    d="M132.3 88.0015H127.817C126.954 88.0015 126.226 88.6487 126.124 89.5058L124.964 99.3766C124.818 100.629 124.821 101.891 124.973 103.143C125.603 108.297 127.329 122.711 127.76 128.905C127.844 130.113 128.848 131.048 130.059 131.048C131.269 131.048 132.27 130.113 132.357 128.905C132.789 122.711 134.515 108.297 135.144 103.143C135.297 101.894 135.3 100.629 135.153 99.3766L133.993 89.5058C133.891 88.6457 133.163 88.0015 132.3 88.0015Z"
    fill="white"
  />
  <path
    d="M130.057 132.097C128.301 132.097 126.83 130.724 126.71 128.974C126.273 122.693 124.472 107.71 123.929 103.266C123.768 101.933 123.765 100.581 123.92 99.2508L125.08 89.383C125.242 87.9956 126.419 86.9468 127.819 86.9468H132.302C133.698 86.9468 134.876 87.9956 135.038 89.383L136.197 99.2538C136.353 100.587 136.35 101.939 136.188 103.269C135.493 108.981 133.827 122.921 133.408 128.977C133.282 130.727 131.813 132.097 130.057 132.097ZM127.816 89.0534C127.486 89.0534 127.208 89.2991 127.169 89.6287L126.009 99.4995C125.871 100.665 125.874 101.849 126.018 103.015C126.56 107.471 128.367 122.501 128.811 128.83C128.856 129.481 129.404 129.993 130.057 129.993C130.711 129.993 131.259 129.484 131.304 128.83C131.729 122.726 133.399 108.744 134.097 103.015C134.241 101.849 134.244 100.668 134.106 99.4995L132.946 89.6287C132.907 89.3021 132.631 89.0534 132.302 89.0534H127.816Z"
    fill="#465FFF"
  />
  <path
    d="M129.452 22.5432C117.295 22.5432 111.26 17.419 111.008 17.2003C110.571 16.8197 110.523 16.1544 110.903 15.7139C111.284 15.2764 111.949 15.2285 112.39 15.6091C112.444 15.654 118.137 20.4366 129.452 20.4366C133.042 20.4366 136.429 19.9601 139.512 19.0252C140.069 18.8574 140.657 19.169 140.825 19.7264C140.992 20.2838 140.681 20.8711 140.123 21.0389C136.842 22.0398 133.252 22.5432 129.452 22.5432Z"
    fill="#465FFF"
  />
  <path
    d="M143.534 19.6696C143.138 19.6696 142.758 19.4449 142.578 19.0643C142.332 18.5369 142.557 17.9106 143.084 17.6619C145.35 16.5981 146.504 15.6182 146.516 15.6092C146.956 15.2316 147.618 15.2796 147.999 15.7201C148.379 16.1576 148.331 16.8198 147.894 17.2034C147.84 17.2513 146.536 18.3721 143.98 19.5707C143.837 19.6366 143.684 19.6696 143.534 19.6696Z"
    fill="#465FFF"
  />
  <path
    d="M251.948 170.992H226.801C226.219 170.992 225.749 170.521 225.749 169.937C225.749 169.356 226.219 168.885 226.801 168.885H251.948C252.53 168.885 253 169.356 253 169.937C253 170.521 252.53 170.992 251.948 170.992Z"
    fill="#465FFF"
  />
  <path
    d="M25.3896 170.992H23.5616C22.9803 170.992 22.5068 170.521 22.5068 169.937C22.5068 169.356 22.9773 168.885 23.5616 168.885H25.3896C25.9709 168.885 26.4414 169.356 26.4414 169.937C26.4444 170.521 25.9709 170.992 25.3896 170.992Z"
    fill="#465FFF"
  />
  <path
    d="M48.1148 170.992H32.4786C31.8972 170.992 31.4268 170.522 31.4268 169.937C31.4268 169.356 31.8972 168.886 32.4786 168.886H47.2218C47.8691 165.317 49.2565 161.987 51.3512 158.97C57.0507 150.765 67.0833 146.654 76.9002 148.491C77.4725 148.599 77.8501 149.147 77.7422 149.719C77.6374 150.292 77.083 150.672 76.5136 150.561C67.4999 148.874 58.3063 152.647 53.0802 160.171C50.9976 163.171 49.6791 166.506 49.1577 170.09C49.0827 170.609 48.6392 170.992 48.1148 170.992Z"
    fill="#465FFF"
  />
  <path
    d="M76.707 180.797H1.05181C0.470467 180.797 0 180.327 0 179.742C0 179.161 0.470467 178.69 1.05181 178.69H76.707C77.2884 178.69 77.7618 179.161 77.7618 179.742C77.7618 180.324 77.2884 180.797 76.707 180.797Z"
    fill="#465FFF"
  />
  <path
    d="M90.2611 180.797H84.2979C83.7166 180.797 83.2461 180.327 83.2461 179.742C83.2461 179.161 83.7166 178.69 84.2979 178.69H90.2641C90.8455 178.69 91.3189 179.161 91.3189 179.742C91.3159 180.324 90.8455 180.797 90.2611 180.797Z"
    fill="#465FFF"
  />
  <path
    d="M159.029 180.797H96.34C95.7586 180.797 95.2852 180.327 95.2852 179.742C95.2852 179.161 95.7556 178.69 96.34 178.69H159.029C159.61 178.69 160.081 179.161 160.081 179.742C160.081 180.324 159.61 180.797 159.029 180.797Z"
    fill="#465FFF"
  />
  <path
    d="M183.214 180.797H167.568C166.987 180.797 166.517 180.327 166.517 179.742C166.517 179.161 166.987 178.69 167.568 178.69H183.214C183.795 178.69 184.265 179.161 184.265 179.742C184.265 180.324 183.795 180.797 183.214 180.797Z"
    fill="#465FFF"
  />
  <path
    d="M241.43 180.797H236.3C235.719 180.797 235.245 180.327 235.245 179.742C235.245 179.161 235.716 178.69 236.3 178.69H241.43C242.011 178.69 242.485 179.161 242.485 179.742C242.485 180.324 242.011 180.797 241.43 180.797Z"
    fill="#465FFF"
  />
  <path
    d="M228.17 180.797H189.97C189.388 180.797 188.918 180.327 188.918 179.742C188.918 179.161 189.388 178.69 189.97 178.69H228.173C228.755 178.69 229.225 179.161 229.225 179.742C229.225 180.324 228.755 180.797 228.17 180.797Z"
    fill="#465FFF"
  />
</svg>
