<svg
  fill="none"
  height="244"
  viewBox="0 0 244 244"
  width="244"
  xmlns="http://www.w3.org/2000/svg"
>
  <title>Security shield illustration</title>
  <path
    d="M28.5273 116.576C26.1166 96.4312 27.2012 76.2024 31.6091 56.2871C32.2496 53.3945 34.9006 56.026 53.5898 51.8402C55.0196 51.5206 56.4373 51.1863 57.8415 50.841C58.471 49.6759 59.1689 48.5157 59.9448 47.3738C43.6712 51.2376 30.9002 52.5503 30.4452 52.9468C29.6375 53.6495 29.3862 53.9472 28.8214 56.3676C23.3826 79.6819 23.2411 104.383 27.6099 128.06C27.8258 124.294 28.1321 120.425 28.5261 116.575L28.5273 116.576Z"
    fill="#161950"
  />
  <path
    d="M210.865 68.3798C207.668 65.32 202.28 62.0394 199.991 61.2257C196.804 60.0911 168.503 57.3778 128.435 33.5085C113.464 24.5903 115.329 23.0141 109.761 26.9974C107.811 28.3918 105.77 29.7131 103.659 30.9636C104.578 31.1039 105.491 31.2674 106.397 31.4553C113.725 26.9169 112.606 25.9775 114.331 27.2707C131.787 40.3613 162.977 55.8553 193.216 62.0102C196.479 62.6738 198.311 61.7454 197.797 64.8027C197.036 69.3326 195.245 96.7411 182.114 128.639C164.94 170.36 129.49 208.703 95.9396 226.484C93.3934 227.834 90.8266 229.686 87.3508 226.971C79.4159 220.774 73.8076 215.902 66.479 207.167C53.741 191.984 49.5344 184.598 43.9359 171.38C43.0465 171.04 42.1022 170.677 41.031 170.275C40.9066 170.229 40.7834 170.183 40.6614 170.136C49.2746 189.346 61.1061 206.546 75.5961 220.01C78.3045 222.527 97.2255 238.947 100.998 237.849C112.325 234.552 144.187 213.304 166.327 185.915C206.322 136.439 213.116 70.538 210.864 68.3822L210.865 68.3798ZM209.259 70.039C203.966 133.986 169.603 195.789 111.802 230.274C99.2397 237.768 100.079 236.634 97.5109 234.726C96.8595 234.241 93.2544 231.522 93.1641 231.43C92.0685 230.327 91.694 231.722 100.427 226.876C130.091 210.417 155.404 182.195 171.91 154.933C185.696 132.164 191.886 113.09 196.353 90.9229C202.443 60.7023 198.274 62.5043 202.579 64.8955C204.732 66.0911 206.684 67.5929 208.73 68.9507C209.278 69.3143 209.274 69.3265 209.259 70.039Z"
    fill="#161950"
  />
  <path
    d="M77.1016 73.0158C118.067 74.0662 117.558 79.1548 118.058 74.348C119.689 58.66 111.069 49.8467 97.1413 49.0415C90.1214 52.5039 82.988 55.1232 76.3036 57.1204C74.5334 59.5482 73.2025 62.4872 72.2265 65.8971C71.5152 68.3834 71.3077 70.1988 71.3126 72.4204C71.3138 73.2195 71.2602 72.8657 77.1016 73.0158Z"
    fill="#465FFF"
  />
  <path
    d="M50.2751 73.8942C52.1149 73.86 51.5219 72.9499 51.6073 72.5107C51.9392 70.8039 52.3064 66.9646 53.491 62.2676C47.3898 63.2582 43.4407 63.6425 43.0124 63.9622C42.5366 64.316 42.1218 64.7527 41.9937 65.3871C41.1885 69.3497 40.5322 73.239 40.0125 77.0528C43.0307 75.1849 47.2226 73.9515 50.2751 73.8942Z"
    fill="#465FFF"
  />
  <path
    d="M180.922 71.3566C179.372 70.8186 161.043 68.42 137.183 56.558C136.865 56.4006 136.552 56.2432 136.242 56.0883C136.669 57.4437 137.017 58.8504 137.279 60.307C139.822 74.4212 135.382 79.0853 137.475 79.6575C147.832 82.494 152.853 84.3618 154.749 96.0286C156.978 109.748 151.712 145.026 146.866 164.428C162.576 142.196 178.093 104.755 182.223 73.5453C182.244 71.9824 182.085 71.7592 180.924 71.3566H180.922Z"
    fill="#465FFF"
  />
  <path
    d="M117.772 182.161C103.339 182.161 92.0893 183.353 59.4434 175.937C74.0443 200.049 91.3366 212.429 93.8962 211.648C100.208 209.723 108.985 202.718 112.61 199.963C122.101 192.75 128.138 187.119 133.801 180.748C128.664 181.841 122.606 181.892 117.772 182.161Z"
    fill="#465FFF"
  />
  <path
    d="M154.748 96.0286C152.852 84.3618 147.832 82.494 137.474 79.6575C135.382 79.0841 139.822 74.4212 137.279 60.307C132.459 33.5463 98.9274 23.9132 75.0154 34.7188C53.8496 44.2836 52.5747 67.5197 51.606 72.5119C51.5206 72.9511 52.1135 73.86 50.2738 73.8942C45.6829 73.9808 38.513 76.7258 36.6403 80.2882C28.1259 96.4874 24.9502 146.798 28.936 158.933C30.0596 162.354 29.5191 165.969 41.0298 170.275C46.9066 172.474 48.9781 173.55 58.9284 175.822C91.9721 183.366 103.263 182.162 117.771 182.162C127.102 181.645 140.989 181.934 144.025 173.985C149.258 160.279 157.43 112.539 154.747 96.0299L154.748 96.0286ZM54.2937 73.2061C54.3669 69.8487 57.0326 58.0183 60.8536 51.3998C64.8064 44.552 68.7592 41.2116 74.1199 38.1811C80.8116 34.3991 93.2361 32.9254 94.7184 32.8961C103.271 32.7265 111.637 35.2861 118.247 38.7911C127.785 43.848 131.729 49.8358 133.663 57.4925C135.409 64.4062 135.354 72.662 134.412 77.814C134.056 79.7599 134.343 78.8157 121.109 76.9125C120.641 76.8454 120.527 76.7258 120.598 76.1975C125.4 40.3686 81.7254 39.0461 71.603 59.913C68.7385 65.8178 68.8788 72.7791 68.8739 72.812C68.7531 73.494 63.2436 72.9987 63.2436 73.1854C53.9155 73.1854 54.2827 73.7441 54.2937 73.2061ZM118.058 74.348C117.558 79.1548 118.067 74.0662 77.1016 73.0158C71.2602 72.8657 71.3127 73.2207 71.3114 72.4204C71.3078 70.1988 71.514 68.3822 72.2252 65.8971C75.3984 54.8048 82.3378 48.6829 95.8713 48.9903C110.542 49.3234 119.737 58.1891 118.057 74.3468L118.058 74.348ZM143.884 164.401C141.514 174.778 141.644 175.743 132.073 177.928C126.848 179.122 103.122 179.695 97.8062 179.019C93.9217 178.525 93.7241 180.501 66.296 174.798C25.6761 166.353 32.99 163.016 30.123 149.432C28.4699 112.721 36.1108 85.339 38.3897 82.2073C40.2441 79.6599 41.8021 79.3268 43.332 78.2301C43.8126 77.886 43.615 78.1068 46.0587 77.2955C47.8228 76.7099 50.5714 76.6197 50.6007 76.6197C75.7718 74.5518 96.9595 76.6709 121.983 80.0771C134.354 81.7607 148.978 82.9539 151.245 92.465C155.002 108.232 147.305 149.433 143.885 164.4L143.884 164.401Z"
    fill="#161950"
  />
  <path
    d="M73.2538 104.269C69.4254 111.325 70.693 120.72 77.6995 126.836C77.9959 127.095 78.1118 127.384 78.0569 127.758C77.5128 131.507 76.6564 140.337 76.6771 145.004C76.7125 152.803 77.0407 157.114 83.636 159.899C88.3049 161.872 93.1752 160.045 95.132 153.977C95.9507 151.437 96.0031 149.567 96.9742 140.762C98.1906 129.742 97.239 130.085 98.3419 129.607C103.609 127.323 108.713 120.769 108.584 113.018C109.333 95.5468 82.4928 87.2386 73.2526 104.267L73.2538 104.269ZM83.9373 135.039C81.5791 157.306 84.9158 159.614 81.1447 156.599C78.5827 154.551 78.4717 149.667 78.5108 146.099C78.6694 131.639 81.3302 127.43 79.7283 126.026C73.8577 120.885 70.8675 112.473 76.0183 104.144C77.2176 102.206 79.9748 100.138 80.1602 99.9619C82.2293 98.0063 85.3708 97.7952 84.1642 99.1287C76.2416 107.893 79.2867 117.58 84.9816 121.988C86.0821 122.839 85.2574 122.559 83.9349 135.038L83.9373 135.039Z"
    fill="#161950"
  />
  <path
    d="M137.865 97.1974C137.477 112.962 131.783 175.689 129.183 168.366C128.524 166.512 136.092 98.8517 136.043 96.1067C135.94 90.2898 134.507 89.6127 135.367 89.1442C135.992 88.8038 136.714 89.8298 136.94 90.4252C137.76 92.5895 137.923 94.8831 137.866 97.1986L137.865 97.1974Z"
    fill="#161950"
  />
  <path
    d="M23.0531 209.112C22.3528 208.874 28.8347 202.198 28.7164 200.958C28.6175 199.921 27.3841 199.322 26.5484 200.065C25.4114 201.078 23.2849 203.317 21.6306 205.004C20.9328 205.716 21.2988 199.848 18.8856 195.339C18.311 194.265 16.9031 194.522 16.8628 195.826C16.7811 198.483 18.1194 205.53 18.5733 207.655C16.2797 207.074 9.68806 205.259 9.63316 207.655C9.62096 208.191 9.92719 208.507 10.3395 208.71C15.2805 211.144 16.6079 210.589 16.0906 211.277C13.3358 214.943 12.4611 215.906 11.9878 217.316C11.6498 218.32 11.9158 219.439 13.0247 219.448C14.2386 219.457 14.6412 218.452 17.3386 215.193C20.9096 210.879 19.021 212.013 21.3878 218.561C21.9771 220.19 22.1247 220.599 22.8909 220.485C24.2133 220.287 23.3349 215.918 23.0592 213.534C22.9262 212.386 29.5838 216.18 30.5329 213.754C31.3247 211.731 27.777 210.715 23.0531 209.109V209.112Z"
    fill="#465FFF"
  />
  <path
    d="M187.456 19.969C186.506 19.6798 189.786 18.2256 192.164 14.9218C192.849 13.969 191.989 12.9588 189.65 14.4143C184.831 17.4131 184.772 18.5269 184.628 17.7876C184.103 15.106 183.82 13.0528 182.977 11.5436C182.088 9.95029 179.745 9.47815 180.458 14.5314C181.338 20.7717 182.367 18.3525 177.178 18.6172C174.813 18.738 173.965 20.1629 174.683 21.0999C175.107 21.6526 175.814 21.7611 177.269 22.071C180.104 22.6749 179.555 21.6135 175.01 26.0751C174.532 26.5448 173.923 27.5927 174.565 28.3113C175.685 29.5643 177.609 27.6452 181.798 24.3463C182.363 23.901 181.895 24.3341 183.277 28.2576C183.741 29.5716 184.029 30.461 184.985 30.4671C185.79 30.4732 186.623 29.607 186.41 28.0136C185.266 19.4932 184.582 25.2625 192.092 22.8103C194.679 21.9649 189.888 20.7107 187.456 19.969Z"
    fill="#465FFF"
  />
  <path
    d="M185.185 224.452C184.193 228.213 190.076 228.363 189.745 225.089C189.968 222.765 186.021 221.28 185.185 224.452Z"
    fill="#465FFF"
  />
  <path
    d="M51.7171 6.10731C50.0396 6.00483 45.0498 7.89217 46.8322 11.618C48.2096 14.4973 52.2112 15.2317 54.5402 12.6282C57.1595 9.70021 54.4926 5.90967 51.7171 6.10731ZM51.1229 11.8669C48.5341 12.0499 48.1071 9.04873 49.0123 8.74007C49.8541 8.45337 50.663 8.01783 51.5951 8.07883C54.2522 8.25329 53.4739 12.0707 51.1229 11.8669Z"
    fill="#465FFF"
  />
  <path
    d="M234.026 144.169C232.04 139.708 225.389 141.444 223.409 143.664C219.443 148.106 225.434 156.748 231.565 151.513C233.639 149.742 235.044 146.454 234.026 144.169ZM227.425 150.626C226.571 150.743 224.493 148.739 225.02 146.382C225.366 144.833 226.881 143.631 227.6 143.76C228.063 143.844 228.55 143.775 229.025 143.807C233.548 144.121 231.147 150.454 227.425 150.626Z"
    fill="#465FFF"
  />
</svg>
