<svg
  fill="none"
  height="180"
  viewBox="0 0 115 180"
  width="115"
  xmlns="http://www.w3.org/2000/svg"
>
  <title>Unsupported device illustration</title>
  <path
    d="M84.909 57.1463C83.7544 59.4048 85.1287 62.3772 87.3877 63.5305C89.6467 64.6839 92.4337 64.3185 94.7275 63.2359C98.1909 61.6012 100.78 58.5044 102.596 55.1328C102.891 57.4754 101.96 59.8531 100.482 61.6947C99.0048 63.5363 97.0212 64.9042 94.9751 66.082C93.3547 67.0147 91.6319 67.8593 89.7748 68.0752C87.9177 68.2911 85.8888 67.782 84.6596 66.3731C83.6441 65.209 83.2933 63.561 83.4986 62.0298C83.7038 60.4986 84.4174 59.0735 84.909 57.1463Z"
    fill="#E8F0FE"
  />
  <path
    d="M84.498 79.7929C84.1058 81.0961 84.6379 82.5608 85.6077 83.5155C86.5775 84.4703 87.9186 84.9701 89.2634 85.1785C92.8408 85.7327 96.5179 84.3551 99.3756 82.1327C102.233 79.9102 104.378 76.9073 106.291 73.834C106.36 75.9327 105.472 77.9729 104.212 79.6528C102.952 81.3326 101.334 82.7039 99.7305 84.0597C97.2143 86.1873 94.3607 89.3196 91.2949 90.5273C89.8268 91.1058 89.3408 91.8443 87.7949 91.5273C85.5596 91.0691 82.8726 87.7931 82.4144 85.5578C81.9563 83.3225 82.85 80.8869 84.498 79.7929Z"
    fill="#E8F0FE"
  />
  <path
    d="M92.1544 98.4917C91.4323 99.1947 91.4185 100.41 91.8995 101.295C92.3804 102.181 93.2499 102.788 94.1455 103.25C96.4637 104.447 99.1085 104.871 101.715 104.967C103.869 105.045 106.056 104.906 108.106 104.242C110.157 103.578 112.071 102.355 113.295 100.581C114.295 104.967 109.81 110.857 105.295 112.527C104.89 111.432 104.7 110.122 104.295 109.027C101.212 109.096 96.2418 109.435 93.2949 108.527C91.2975 107.912 90.7315 105.627 89.9482 103.689C89.1648 101.752 90.21 99.0594 92.1544 98.4917Z"
    fill="#E8F0FE"
  />
  <path
    d="M82.2578 26.7898C83.2159 26.6568 84.2283 26.594 85.1163 26.9775C86.0263 27.3706 86.6864 28.1832 87.2017 29.0301C89.6927 33.1235 89.3737 38.7421 86.4353 42.5273C86.4088 39.9979 85.5975 37.5505 84.7947 35.1517C83.8916 32.4536 82.9888 29.7555 82.2578 26.7898Z"
    fill="#E8F0FE"
  />
  <path
    d="M27.7949 127.027C27.7949 127.027 17.7955 112.527 21.2953 96.0273C21.1185 89.243 7.46438 77.8433 9.29531 72.5273C6.99092 73.0547 11.0213 70.6245 9.29531 72.5273C7.79531 67.5273 14.9965 45.9034 10.7953 50.5272C9.29531 50.5272 8.29531 60.0272 2.79515 72.5273C0.901296 78.0231 11.0494 89.4793 11.2951 96.5273C11.2921 96.5034 11.2951 96.5513 11.2951 96.5273C14.2951 115.027 13.0658 117.027 17.7955 127.027C17.9004 127.249 6.79492 155.027 0.794922 161.027H12.2949L27.7949 127.027Z"
    fill="#E8F0FE"
    opacity="0.5"
  />
  <path
    d="M109.744 129.687L104.413 109.548C102.884 109.749 101.323 109.752 99.806 109.637C98.6042 109.546 97.3885 109.393 96.213 109.122C95.1978 108.888 94.1677 108.663 93.201 108.266C92.1791 107.846 91.268 107.232 90.6217 106.322C89.9995 105.447 89.6437 104.397 89.6745 103.318C89.7056 102.231 90.1176 101.173 90.867 100.381C91.636 99.567 92.6616 98.955 93.7004 98.5564C94.8578 98.1124 96.0996 97.9872 97.2809 97.6231C98.5086 97.2445 99.7125 96.7859 100.992 96.6241L98.1032 85.7107C97.3815 86.3558 96.6005 86.9296 95.7301 87.3227C95.5933 87.3845 95.439 87.3819 95.3263 87.2951C94.3151 88.3045 93.2979 89.3314 92.1732 90.2063C90.9531 91.1556 89.5618 91.8082 87.9837 91.6103C86.7736 91.4586 85.6205 91.048 84.658 90.2866C82.954 88.9388 82.3183 86.707 82.6231 84.611C82.7842 83.5032 83.2128 82.4287 83.8349 81.4994C84.2259 80.915 84.6974 80.4094 85.1936 79.9138C85.8483 79.2601 86.527 78.6307 87.2163 78.0138C88.5307 76.8374 89.8609 75.6696 91.2258 74.552C91.8552 74.0365 92.4889 73.5243 93.0837 72.9685C93.5489 72.5337 94.0029 72.0719 94.3514 71.5365L93.2774 67.4788C92.1637 67.9858 90.9782 68.3097 89.7201 68.3219C88.4293 68.3344 87.1151 68.0353 85.95 67.4819C85.1359 67.0953 84.3905 66.5427 83.8804 65.7911C82.9473 64.4166 83.12 62.6602 83.6464 61.1677C84.2719 59.3947 85.3251 57.7876 86.4601 56.302C87.3758 55.1032 88.3703 53.9675 89.4125 52.8775L77.1594 6.58701C75.1603 1.13482 68.6975 -0.519439 66.2549 0.135248L12.8233 13.9476C10.3807 14.6023 6.71629 21.6825 7.37098 24.125L39.9934 149.246C40.6481 151.689 48.5359 155.438 50.9785 154.783L103.671 140.851C106.113 140.196 110.19 135.135 109.744 129.687Z"
    fill="#465FFF"
  />
  <path
    d="M105.63 127.582L100.735 109.456C99.2987 109.645 98.3608 109.222 96.9357 109.114C95.8065 109.029 94.6681 108.6 93.5634 108.346C92.6095 108.126 92.0172 106.778 91.1091 106.405C90.1489 106.01 90.457 105.06 89.8497 104.205C89.2651 103.382 89.4366 102.829 89.4655 101.815C89.4947 100.794 90.0847 101.108 90.7888 100.363C91.5114 99.599 92.2885 99.3292 93.2646 98.9547C94.3522 98.5375 94.6732 98.2724 95.7831 97.9302C96.9368 97.5746 96.4165 97.5274 97.6187 97.3753L94.9294 87.9841C94.2514 88.5902 94.7655 88.0843 93.9476 88.4537C93.8191 88.5117 93.0291 89.0474 92.9231 88.9659C91.9729 89.9143 91.5894 89.9792 90.5327 90.8015C89.3862 91.6934 87.6895 90.9407 86.2067 90.7548C85.0696 90.6122 84.6925 89.4678 83.7881 88.7524C82.187 87.486 81.9224 86.0264 82.2087 84.0568C82.3601 83.0159 82.6914 82.2407 83.2759 81.3675C83.6435 80.8185 84.005 80.5098 84.4712 80.0442C85.0863 79.4299 85.7017 78.9165 86.3494 78.3367C87.5844 77.2313 88.61 76.228 89.8924 75.1778C90.4839 74.6934 90.913 74.761 91.4719 74.2386C91.909 73.83 90.6323 73.333 90.9596 72.83L89.9351 68.4332C88.8886 68.9096 88.8123 68.4217 87.6301 68.4332C86.4171 68.4448 86.0782 67.7579 84.9835 67.2379C84.2185 66.8747 84.225 65.6817 83.7455 64.9755C82.8687 63.6839 83.0375 63.1763 83.5321 61.774C84.1198 60.108 83.7086 58.9736 84.7751 57.5777C85.6355 56.4513 85.4983 56.1391 86.4776 55.1148L74.6267 10.226C72.9029 3.76189 67.712 3.13668 65.4169 3.75183L14.3527 17.7033C12.0576 18.3185 10.5461 23.8884 11.1613 26.1835L42.1644 144.725C42.7796 147.02 46.7083 151.814 49.0033 151.199L101.162 137.613C103.457 136.997 106.541 134.056 105.63 127.582Z"
    fill="#F0F5FE"
  />
  <path
    d="M61.137 64.1684C67.4215 65.0365 72.8997 68.2239 75.7519 73.8896C79.0968 80.5341 78.3779 90.546 72.6008 95.8211C66.7646 101.15 58.3582 102.129 51.0412 99.9022C50.5164 99.7425 49.997 99.5651 49.4848 99.3687C46.015 98.0388 42.7092 95.9877 40.5749 92.9459C38.6198 90.1595 37.7712 86.7012 37.7326 83.2975C37.637 74.8652 43.5211 67.5787 51.4099 64.9734C54.4634 63.9649 57.8418 63.7132 61.137 64.1684Z"
    fill="#FF4D61"
  />
  <path
    d="M60.7709 98.3115C59.9454 98.329 59.1194 98.3127 58.2952 98.2567C54.069 97.9697 49.587 96.6348 45.9561 94.4398C41.8928 91.9834 40.1876 87.5283 39.0576 83.1368C38.8147 82.1932 38.2047 78.9452 38.4409 78.1304C37.9628 79.7794 37.7123 81.5124 37.7326 83.2978C37.7712 86.7015 38.6198 90.1598 40.5749 92.9462C42.7092 95.988 46.015 98.0392 49.4847 99.3691C49.997 99.5655 50.5163 99.7429 51.0411 99.9025C57.09 101.743 66.9216 101.837 71.5046 96.5682C70.6409 97.5611 66.396 97.7522 65.1032 97.9388C63.6688 98.1458 62.2207 98.2807 60.7709 98.3115Z"
    fill="#EA3B54"
  />
  <path
    d="M48.6026 85.2647C48.0177 83.1875 47.9766 80.9804 48.7521 78.9449C49.5075 76.9621 51.0131 75.3628 52.8205 74.2869C55.9435 72.4277 60.1356 71.9111 63.4691 73.5268C65.2616 74.3955 66.7154 75.8672 67.5019 77.7051C68.3897 79.7797 68.4376 82.1682 67.9021 84.339C67.3837 86.4402 66.3127 88.2796 64.5601 89.5804C62.9614 90.7669 61.0008 91.4906 59.0227 91.6852C56.8408 91.8999 54.5505 91.4815 52.6372 90.3933C50.6553 89.2662 49.2508 87.4438 48.6026 85.2647C48.4427 84.727 47.5991 84.956 47.76 85.497C49.0584 89.862 53.0859 92.4578 57.5394 92.6074C61.8916 92.7536 66.458 90.4602 68.1676 86.3234C69.9644 81.9759 69.2677 76.5322 65.3169 73.6197C61.9724 71.1542 57.2876 71.2369 53.6165 72.8892C51.3497 73.9096 49.3478 75.6334 48.2597 77.895C47.1134 80.2778 47.0506 82.9776 47.76 85.497C47.9122 86.0375 48.7556 85.8078 48.6026 85.2647Z"
    fill="#841918"
  />
  <path
    d="M74.2281 75.9597C74.3219 76.1054 74.403 76.2582 74.4714 76.4175C74.4567 76.3827 74.442 76.3479 74.4273 76.3131C74.5122 76.5142 74.5755 76.723 74.6164 76.9374C74.636 77.04 74.7298 77.1473 74.8172 77.1985C74.9109 77.2533 75.0489 77.2765 75.1539 77.2425C75.2596 77.2083 75.3616 77.1428 75.415 77.0417C75.4724 76.9331 75.4821 76.8259 75.459 76.7051C75.3792 76.2864 75.2132 75.8769 74.9826 75.5187C74.9216 75.4237 74.8321 75.3483 74.7215 75.3179C74.617 75.2891 74.4777 75.3021 74.3849 75.362C74.2916 75.4221 74.2094 75.5117 74.1841 75.6231C74.1586 75.7349 74.1642 75.8604 74.2281 75.9597Z"
    fill="white"
  />
  <path
    d="M75.3273 78.5564C75.8896 78.5564 75.8905 77.6826 75.3273 77.6826C74.765 77.6826 74.7641 78.5564 75.3273 78.5564Z"
    fill="white"
  />
  <path
    d="M61.0203 64.5899C65.6686 65.2502 69.9891 67.5188 73.0843 71.0638C76.094 74.5106 77.7264 79.0304 77.4856 83.6098C77.2969 87.1972 76.0101 90.764 73.7171 93.5459C71.7769 95.8997 69.2016 97.6751 66.3711 98.7913C60.6698 101.039 53.9231 100.91 48.3297 98.3864C45.6238 97.1658 43.1514 95.3603 41.3541 92.9793C39.4158 90.4115 38.3616 87.2992 38.1942 84.0956C37.9458 79.3455 39.657 74.6956 42.8039 71.1438C46.286 67.2136 51.2449 64.7872 56.4834 64.437C58.0369 64.3331 59.594 64.3993 61.1364 64.6055C61.692 64.6798 61.6865 63.8053 61.1364 63.7317C55.3365 62.9563 49.4714 64.3877 44.8531 68.0157C40.9493 71.0825 38.1781 75.5805 37.4803 80.5205C36.959 84.21 37.5287 88.0846 39.2965 91.3822C40.7842 94.1574 43.0899 96.4264 45.7798 98.0398C51.3244 101.365 58.4096 102.083 64.5909 100.316C67.6772 99.433 70.5932 97.8888 72.9288 95.6712C75.4014 93.3236 77.1031 90.2669 77.8811 86.9528C78.9797 82.2731 78.2072 77.3197 75.7213 73.2038C73.2619 69.132 69.3132 66.0634 64.8065 64.5728C63.6489 64.19 62.4594 63.9188 61.2526 63.7474C60.7026 63.6692 60.4649 64.511 61.0203 64.5899Z"
    fill="#841918"
  />
  <path
    d="M70.1264 78.7746C69.5705 76.2181 68.073 74.0266 65.9788 72.488C62.2369 69.7387 57.0322 69.9225 52.9554 71.7574C50.5073 72.8593 48.3017 74.7946 47.1283 77.2335C45.8266 79.9391 45.687 82.9705 46.4965 85.8454C47.2199 88.2774 48.679 90.3164 50.7488 91.7798C52.7032 93.1618 55.1652 93.8383 57.5398 93.9181C59.9486 93.999 62.4149 93.3715 64.5177 92.2018C66.7673 90.9504 68.4596 89.0469 69.4319 86.6718C70.4457 84.1955 70.695 81.3898 70.1264 78.7746ZM57.6243 73.9703C57.3542 74.0152 57.5054 73.987 57.6243 73.9703V73.9703ZM54.7781 74.7499C54.8521 74.7188 54.9298 74.6894 54.7781 74.7499V74.7499ZM49.5177 81.2366C49.5191 81.2162 49.5235 81.18 49.5279 81.146C49.5434 81.0488 49.5589 80.9516 49.5772 80.8549C49.6788 80.3187 49.8398 79.8083 50.0163 79.2933C50.0229 79.274 50.0383 79.2366 50.0523 79.2031C50.0941 79.1108 50.136 79.0187 50.1807 78.9276C50.2844 78.7168 50.396 78.5099 50.5157 78.3077C50.6507 78.0799 50.798 77.8611 50.9489 77.6437C50.9659 77.6193 50.9775 77.6025 50.9898 77.5849C51.1008 77.4456 51.2163 77.3097 51.3355 77.1772C51.6867 76.7865 52.0701 76.4285 52.4757 76.0952C52.5096 76.0679 52.5485 76.037 52.5597 76.0288C52.6715 75.9478 52.7837 75.8677 52.8979 75.7901C53.089 75.6605 53.2839 75.5366 53.4823 75.4185C53.8834 75.1798 54.2987 74.9764 54.7194 74.7754C54.7319 74.7696 54.7497 74.7618 54.7684 74.7539C54.8504 74.7211 54.9322 74.6881 55.0148 74.6568C55.256 74.5654 55.4998 74.4812 55.746 74.4045C56.1718 74.2718 56.6045 74.1613 57.0418 74.0732C57.2397 74.0335 57.4388 74.0015 57.6378 73.9682C57.6571 73.9655 57.675 73.9633 57.6888 73.962C57.8519 73.9463 58.0145 73.9286 58.1781 73.9169C58.5964 73.8868 59.0163 73.8776 59.4355 73.8907C59.6671 73.898 59.8986 73.912 60.1294 73.933C60.2216 73.9414 60.3132 73.9524 60.4052 73.9614C60.424 73.9634 60.4384 73.9647 60.4519 73.9657C60.4776 73.9715 60.5099 73.9785 60.5563 73.9879C60.9843 74.0745 61.4077 74.1609 61.8261 74.2883C62.0447 74.3548 62.2573 74.4359 62.4732 74.5098C62.4889 74.5152 62.5113 74.524 62.5336 74.533C62.6255 74.5739 62.7174 74.6146 62.8079 74.6584C63.0874 74.7938 63.3568 74.9485 63.621 75.1119C59.1831 78.8635 54.8847 82.777 50.7376 86.8478C50.6205 86.6602 50.5057 86.4712 50.4027 86.2755C50.3446 86.1651 50.2885 86.0537 50.235 85.9409C50.2143 85.8973 50.0407 85.4464 50.1689 85.8013C50.0627 85.5073 49.956 85.2162 49.8668 84.9162C49.7226 84.4043 49.603 83.8846 49.5277 83.3577C49.526 83.337 49.5245 83.3183 49.5222 83.2899C49.5115 83.1567 49.4984 83.0239 49.4901 82.8906C49.4719 82.6004 49.4654 82.3096 49.4712 82.0188C49.4765 81.7567 49.5004 81.4979 49.5177 81.2366ZM66.8861 82.6128C66.8797 82.6838 66.8715 82.7548 66.8638 82.8258C66.8596 82.8361 66.8175 83.14 66.8139 83.1605C66.765 83.4391 66.7063 83.7159 66.6386 83.9906C66.5107 84.5089 66.3454 85.0172 66.1512 85.5144C66.1289 85.5589 66.0049 85.8475 65.9714 85.9153C65.8385 86.1848 65.6905 86.4472 65.5281 86.7001C65.4742 86.7839 65.4188 86.867 65.362 86.9489C65.3441 86.9748 65.2285 87.1228 65.1921 87.1721C65.0924 87.2916 64.9926 87.4112 64.8869 87.5256C64.7176 87.7088 64.5406 87.8846 64.357 88.0536C64.265 88.1383 64.171 88.2206 64.0758 88.3016C64.0362 88.3352 63.8348 88.4869 63.7983 88.5173C63.4604 88.7559 63.1155 88.9821 62.7535 89.1838C62.5321 89.3072 62.3061 89.4228 62.0768 89.5308C62.0282 89.5537 61.979 89.5755 61.93 89.5977C61.9369 89.5926 61.7073 89.6909 61.6523 89.7117C61.1773 89.8918 60.6906 90.0419 60.1967 90.1604C59.9753 90.2135 59.7525 90.2604 59.5285 90.3012C59.4046 90.3237 59.2799 90.3416 59.1557 90.3631C59.5681 90.2917 59.0797 90.3689 59.0231 90.3744C58.4818 90.4278 57.9366 90.4426 57.3933 90.4169C57.1072 90.4033 56.8215 90.3764 56.5371 90.3416C56.5225 90.3389 56.5127 90.3371 56.4947 90.3339C56.3451 90.3068 56.1951 90.2821 56.0461 90.2519C55.5099 90.1432 54.9809 89.9974 54.4661 89.8119C54.3639 89.7751 54.2629 89.7351 54.1619 89.6952C54.1486 89.6893 54.1297 89.681 54.1043 89.6696C58.0686 85.7912 62.1704 82.0558 66.3996 78.4681C66.4396 78.5823 66.4806 78.696 66.5174 78.8114C66.594 79.0515 66.6611 79.2944 66.7189 79.5396C66.7795 79.7964 66.8283 80.0565 66.8679 80.3173C66.8724 80.3531 66.8769 80.3896 66.8781 80.4061C66.8931 80.6035 66.9123 80.8001 66.9218 80.998C66.9474 81.5361 66.9352 82.0762 66.8861 82.6128Z"
    fill="white"
  />
  <path
    d="M17.3567 64.982C17.0936 68.3621 16.4645 71.6967 15.7528 75.0074C15.6117 75.6636 16.6195 75.944 16.761 75.2854C17.4923 71.8837 18.1321 68.4548 18.4022 64.982C18.4545 64.311 17.4087 64.3143 17.3567 64.982Z"
    fill="#465FFF"
  />
  <path
    d="M3.24037 70.1941C5.515 66.3565 6.66402 62.0153 7.69626 57.7121C8.20141 55.6062 8.59385 53.4177 9.29842 51.3673C9.58096 50.5451 10.1212 49.4414 11.0666 49.2508C12.1646 49.0293 13.0663 50.135 13.7061 50.8715C14.1482 51.3804 14.8852 50.6382 14.4454 50.1321C13.2579 48.7652 11.4641 47.3779 9.74355 48.7746C8.07334 50.1305 7.79253 52.8314 7.32112 54.7825C6.09255 59.8673 5.03633 65.1131 2.33745 69.6665C1.99363 70.2466 2.89712 70.7731 3.24037 70.1941Z"
    fill="#465FFF"
  />
  <path
    d="M2.10135 70.1977C0.358548 73.3394 1.81204 76.7658 3.42252 79.6189C5.31592 82.9735 7.04693 86.3848 8.3824 90.0047C9.69516 93.563 10.6638 97.2546 11.1878 101.013C11.7409 104.98 11.8866 108.989 12.5494 112.943C13.2831 117.321 14.4734 121.609 16.0706 125.749C16.3103 126.37 17.3216 126.1 17.0788 125.471C15.7041 121.907 14.6291 118.235 13.8897 114.488C13.1264 110.619 12.8805 106.705 12.4516 102.794C11.6579 95.555 9.40237 88.6318 6.03546 82.1854C4.29807 78.859 0.851711 74.6054 3.00417 70.7254C3.33098 70.1366 2.42816 69.6086 2.10135 70.1977Z"
    fill="#465FFF"
  />
  <path
    d="M82.5867 26.5817C84.0637 25.447 86.0182 25.1465 87.7751 25.7814C89.7393 26.4912 90.8914 28.3169 91.1747 30.3271C91.7993 34.7598 88.7234 38.4686 86.3724 41.8764C85.9894 42.4316 86.8953 42.955 87.2753 42.4041C89.9679 38.5013 93.4722 34.036 91.9472 28.9739C90.6956 24.8195 85.5761 22.9768 82.0589 25.6787C81.5326 26.0831 82.0528 26.9918 82.5867 26.5817Z"
    fill="#465FFF"
  />
  <path
    d="M89.9294 68.9096C92.3296 68.5775 94.5255 67.3968 96.5099 66.0571C98.3753 64.7977 100.177 63.397 101.59 61.6302C102.918 59.9707 104.018 57.8984 103.823 55.7076C103.671 54.0016 102.783 52.4383 101.517 51.3059C100.238 50.1632 98.6132 49.4192 96.9019 49.2602C94.963 49.08 93.2992 49.9058 91.6812 50.8841C88.1151 53.0404 84.796 56.3717 83.1978 60.2782C82.3856 62.2635 82.312 64.5763 83.6198 66.3725C85.0451 68.3301 87.4372 69.1707 89.7904 68.9283C90.4532 68.86 90.4602 67.8136 89.7904 67.8826C87.7296 68.0949 85.5747 67.4338 84.3752 65.6351C83.4035 64.1781 83.5007 62.3797 84.1083 60.8007C85.4357 57.3515 88.3613 54.324 91.392 52.306C92.7654 51.3916 94.3286 50.3706 96.0217 50.2839C97.5355 50.2065 99.0519 50.7447 100.266 51.6323C101.502 52.5357 102.477 53.8721 102.735 55.4021C103.082 57.4547 102.012 59.461 100.758 61.0072C99.4204 62.6569 97.7334 63.9719 95.982 65.1542C94.0622 66.4503 91.9735 67.5799 89.6512 67.9013C88.9878 67.9932 89.2702 69.0008 89.9294 68.9096Z"
    fill="#465FFF"
  />
  <path
    d="M88.5876 76.0066C85.9525 78.2472 82.0813 80.7125 81.7893 84.5254C81.511 88.1629 85.449 92.3838 89.1799 91.8662C90.0983 91.7388 90.8491 91.2984 91.6096 90.7995C92.8205 90.0053 93.9939 89.1526 95.1633 88.2992C95.7015 87.9065 95.1803 86.9988 94.6355 87.3963C93.4963 88.2277 92.353 89.0568 91.1761 89.8347C90.3852 90.3573 89.6212 90.8428 88.6385 90.8665C86.2777 90.9236 84.1525 88.7999 83.2553 86.7804C81.3206 82.4254 86.5303 79.1238 89.327 76.7459C89.8404 76.3094 89.0977 75.5729 88.5876 76.0066Z"
    fill="#465FFF"
  />
  <path
    d="M90.9581 73.8843C90.3304 74.4483 89.7094 75.0197 89.0957 75.5988C88.6052 76.0616 89.3457 76.8001 89.835 76.3382C90.4488 75.759 91.0698 75.1877 91.6974 74.6237C92.199 74.173 91.4575 73.4354 90.9581 73.8843Z"
    fill="#465FFF"
  />
  <path
    d="M106.061 113.034C108.654 111.296 110.938 109.114 112.712 106.54C114.252 104.306 115.334 101.351 113.957 98.7647C112.729 96.4581 109.959 95.8531 107.558 95.8105C104.141 95.7498 100.641 96.3332 97.3145 97.0675C96.6577 97.2125 96.9356 98.2207 97.5925 98.0757C100.525 97.4285 103.517 96.9812 106.521 96.8683C108.726 96.7853 111.62 96.9582 112.917 99.0536C114.44 101.515 112.977 104.436 111.464 106.495C109.839 108.707 107.811 110.604 105.533 112.131C104.977 112.504 105.5 113.41 106.061 113.034Z"
    fill="#465FFF"
  />
  <path
    d="M100.515 109.741C102.48 109.747 104.445 109.752 106.41 109.757C107.083 109.759 107.084 108.713 106.41 108.712C104.445 108.707 102.48 108.701 100.515 108.695C99.8419 108.693 99.8409 109.739 100.515 109.741Z"
    fill="#465FFF"
  />
  <path
    d="M16.3563 126.19C16.2028 127.671 15.6184 129.153 15.1174 130.543C14.2799 132.866 13.3229 135.146 12.326 137.405C9.98505 142.71 7.41231 147.925 4.58149 152.985C3.18956 155.473 1.73462 157.936 0.09447 160.27C-0.293239 160.822 0.612962 161.345 0.997384 160.798C4.14516 156.319 6.72302 151.418 9.17193 146.532C11.6458 141.596 14.0006 136.561 15.921 131.38C16.5382 129.716 17.2176 127.97 17.4021 126.19C17.4713 125.521 16.4251 125.526 16.3563 126.19Z"
    fill="#465FFF"
  />
  <path
    d="M66.9863 153.143C63.7077 159.08 60.4906 165.05 57.241 171.002C56.528 172.308 55.8153 173.614 55.0961 174.916C54.7705 175.506 55.6732 176.034 55.999 175.444C59.2775 169.508 62.4946 163.538 65.7443 157.586C66.4572 156.28 67.1699 154.974 67.8892 153.671C68.2147 153.082 67.312 152.554 66.9863 153.143Z"
    fill="#465FFF"
  />
  <path
    d="M94.8838 71.5425C94.5633 70.243 94.2427 68.9433 93.9222 67.6437C93.7612 66.9907 92.7525 67.2673 92.9139 67.9217C93.2344 69.2213 93.555 70.5209 93.8755 71.8205C94.0365 72.4734 95.0452 72.1969 94.8838 71.5425Z"
    fill="#465FFF"
  />
  <path
    d="M101.183 96.2559C100.358 92.8188 99.5315 89.3817 98.7056 85.9446C98.5484 85.2906 97.5398 85.5676 97.6973 86.2226C98.5233 89.6597 99.3492 93.0968 100.175 96.5339C100.332 97.1879 101.341 96.911 101.183 96.2559Z"
    fill="#465FFF"
  />
  <path
    d="M100.335 109.802C101.727 115.327 103.119 120.852 104.511 126.377C104.727 127.236 104.947 128.093 105.16 128.953C105.793 131.505 105.079 134.206 103.064 135.957C101.671 137.168 99.9353 137.503 98.2161 137.954C92.5793 139.435 86.9425 140.916 81.3057 142.398C74.3411 144.228 67.3765 146.058 60.4119 147.887C58.1325 148.486 55.853 149.085 53.5734 149.684C51.676 150.183 49.8813 150.735 47.8919 150.139C45.373 149.384 43.7837 147.333 43.1374 144.873C42.9 143.97 42.6626 143.066 42.4252 142.162C41.4002 138.261 40.3753 134.36 39.3503 130.458C37.7976 124.548 36.2449 118.638 34.6922 112.728C32.8416 105.684 30.9911 98.6408 29.1406 91.5971C27.2174 84.2768 25.2941 76.9565 23.3709 69.6362C21.6236 62.9851 19.8761 56.334 18.1288 49.683C16.7822 44.5574 15.4356 39.4319 14.089 34.3064C13.3745 31.5869 12.6601 28.8673 11.9457 26.1479C11.4592 24.2961 11.4017 22.4185 12.3159 20.656C13.2333 18.8871 14.8308 17.6763 16.7376 17.1536C17.1536 17.0397 17.5721 16.9344 17.9892 16.8248C23.2611 15.4396 28.533 14.0545 33.8049 12.6694C40.869 10.8134 47.9331 8.95741 54.9971 7.10142C57.5136 6.44026 60.0299 5.77909 62.5464 5.11793C63.6368 4.83142 64.7307 4.48228 65.8395 4.27079C68.7847 3.70909 71.794 5.20096 73.1734 7.85132C73.4991 8.4772 73.6806 9.1374 73.8576 9.81151C74.3239 11.5864 74.7903 13.3612 75.2566 15.1361C77.007 21.7983 78.7575 28.4605 80.5079 35.1227C82.0949 41.1628 83.6819 47.203 85.2689 53.2432C85.5214 54.2042 85.7739 55.1653 86.0264 56.1263C86.1973 56.7766 87.2062 56.5009 87.0347 55.8483C86.0463 52.0866 85.0581 48.3251 84.0697 44.5634C82.1738 37.3476 80.278 30.132 78.3822 22.9162C77.1825 18.3502 75.9959 13.7806 74.7831 9.21811C73.749 5.32778 70.1131 2.60995 66.0298 3.1846C64.776 3.36101 63.5328 3.77733 62.3119 4.09805C56.2768 5.68369 50.2417 7.26942 44.2066 8.85505C37.2961 10.6707 30.3856 12.4864 23.475 14.302C21.4469 14.8349 19.4186 15.3678 17.3905 15.9007C14.8908 16.5574 12.6677 17.7171 11.413 20.1283C9.81224 23.2042 10.8646 26.1489 11.6665 29.2013C12.7386 33.2819 13.8106 37.3624 14.8826 41.4429C16.4911 47.565 18.0995 53.6872 19.7079 59.8093C21.6088 67.0449 23.5097 74.2805 25.4107 81.516C27.3575 88.9262 29.3043 96.3364 31.2512 103.747C32.9972 110.393 34.7433 117.039 36.4894 123.685C37.7882 128.628 39.0868 133.571 40.3855 138.515C40.9902 140.816 41.5848 143.121 42.1996 145.419C43.0643 148.653 45.7196 151.095 49.0955 151.436C50.8227 151.61 52.473 151.055 54.1192 150.622C59.9605 149.087 65.8018 147.553 71.6431 146.018C78.6443 144.178 85.6455 142.339 92.6467 140.499C94.8178 139.929 96.989 139.358 99.1602 138.788C101.373 138.206 103.402 137.473 104.864 135.54C106.361 133.561 106.763 131.073 106.172 128.69C105.958 127.825 105.737 126.963 105.519 126.099C104.643 122.62 103.766 119.14 102.889 115.661C102.374 113.615 101.858 111.57 101.343 109.524C101.179 108.872 100.17 109.148 100.335 109.802Z"
    fill="#465FFF"
  />
  <path
    d="M94.3955 87.9864C95.2471 91.228 96.0986 94.4695 96.9502 97.711C97.121 98.3612 98.1299 98.0855 97.9585 97.433C97.1069 94.1914 96.2554 90.9499 95.4038 87.7084C95.233 87.0581 94.224 87.3339 94.3955 87.9864Z"
    fill="#465FFF"
  />
  <path
    d="M89.3841 68.8771C89.837 70.6356 90.29 72.3941 90.743 74.1526C90.9107 74.8038 91.9195 74.5277 91.7512 73.8746C91.2983 72.1161 90.8453 70.3576 90.3924 68.5991C90.2246 67.9479 89.2158 68.224 89.3841 68.8771Z"
    fill="#465FFF"
  />
  <path
    d="M68.295 153.527C69.9145 152.19 71.6754 150.865 73.2949 149.527C73.8143 149.099 72.8545 148.175 72.3392 148.601C70.7196 149.938 69.1 151.275 67.4805 152.612C66.9612 153.041 67.7797 153.953 68.295 153.527Z"
    fill="#465FFF"
  />
  <path
    d="M92.2771 74.193C95.4473 71.265 101.781 66.4733 105.062 71.8387C107.657 76.0843 103.647 80.4499 100.577 83.0805C98.9192 84.5008 97.1241 85.7435 95.2972 86.9338C94.7355 87.2998 95.2589 88.2055 95.8249 87.8368C99.6743 85.3286 104.064 82.3588 106.111 78.0912C107.133 75.9602 107.27 73.5925 106.075 71.4971C104.675 69.0437 102.232 67.889 99.47 68.53C96.4306 69.2352 93.7807 71.3819 91.5377 73.4536C91.0423 73.9112 91.7832 74.6492 92.2771 74.193Z"
    fill="#465FFF"
  />
  <path
    d="M97.3426 97.09C93.9159 97.5723 88.3482 99.5611 89.1515 104.011C90.0672 109.083 95.7514 109.704 99.9221 109.713C100.595 109.715 100.596 108.669 99.9221 108.668C96.2997 108.66 91.1596 108.353 90.2029 103.948C89.3606 100.07 94.7895 98.4966 97.6205 98.0982C98.2841 98.0049 98.0018 96.9972 97.3426 97.09Z"
    fill="#465FFF"
  />
  <path
    d="M17.5632 65.6105C17.3015 68.9714 16.6756 72.287 15.9675 75.579C15.8272 76.2315 16.8298 76.5102 16.9706 75.8554C17.6981 72.473 18.3346 69.0636 18.6034 65.6105C18.6554 64.9433 17.6149 64.9466 17.5632 65.6105Z"
    fill="#465FFF"
  />
  <path
    d="M3.51853 70.7929C5.78146 66.977 6.92456 62.6605 7.9515 58.3817C8.45405 56.2877 8.84447 54.1116 9.54541 52.0729C9.8265 51.2554 10.364 50.1579 11.3045 49.9684C12.3969 49.7482 13.2939 50.8476 13.9304 51.5799C14.3703 52.086 15.1034 51.3479 14.666 50.8448C13.4845 49.4856 11.7 48.1061 9.98825 49.495C8.32663 50.8431 8.04727 53.5287 7.57828 55.4687C6.35604 60.5247 5.30526 65.7407 2.62026 70.2683C2.2782 70.845 3.17705 71.3686 3.51853 70.7929Z"
    fill="#465FFF"
  />
  <path
    d="M2.38635 70.7964C0.652509 73.9202 2.09852 77.3271 3.70071 80.1641C5.58437 83.4996 7.30648 86.8916 8.63508 90.4909C9.94108 94.029 10.9047 97.6997 11.4261 101.437C11.9763 105.381 12.1212 109.367 12.7806 113.299C13.5106 117.652 14.6948 121.915 16.2837 126.032C16.5222 126.65 17.5283 126.381 17.2868 125.756C15.9191 122.212 14.8497 118.561 14.114 114.835C13.3547 110.988 13.1101 107.097 12.6833 103.207C11.8937 96.0097 9.6498 89.1258 6.30022 82.716C4.57176 79.4085 1.14313 75.179 3.28451 71.3211C3.60964 70.7355 2.71148 70.2106 2.38635 70.7964Z"
    fill="#465FFF"
  />
  <path
    d="M82.4569 27.4282C83.9263 26.3 85.8707 26.0012 87.6186 26.6325C89.5727 27.3382 90.7189 29.1536 91.0007 31.1524C91.6221 35.5599 88.562 39.2477 86.2231 42.6361C85.842 43.1882 86.7433 43.7086 87.1214 43.1609C89.8001 39.2802 93.2864 34.8402 91.7692 29.8069C90.5241 25.6761 85.4309 23.8438 81.9318 26.5304C81.4082 26.9325 81.9258 27.836 82.4569 27.4282Z"
    fill="#465FFF"
  />
  <path
    d="M89.7608 69.5157C92.1488 69.1855 94.3333 68.0115 96.3075 66.6794C98.1633 65.4272 99.9559 64.0344 101.362 62.2776C102.682 60.6275 103.777 58.567 103.583 56.3886C103.431 54.6924 102.549 53.1379 101.288 52.012C100.017 50.8757 98.4 50.1359 96.6975 49.9778C94.7686 49.7987 93.1133 50.6198 91.5037 51.5925C87.9559 53.7366 84.6538 57.0489 83.0639 60.9333C82.2559 62.9073 82.1827 65.207 83.4837 66.993C84.9018 68.9395 87.2815 69.7753 89.6225 69.5343C90.2819 69.4664 90.289 68.4259 89.6225 68.4945C87.5724 68.7056 85.4285 68.0483 84.2352 66.2598C83.2686 64.811 83.3652 63.0228 83.9697 61.4528C85.2902 58.0232 88.2008 55.0129 91.216 53.0064C92.5823 52.0971 94.1374 51.0819 95.8218 50.9958C97.3279 50.9188 98.8364 51.4539 100.044 52.3364C101.274 53.2347 102.244 54.5636 102.501 56.0848C102.845 58.1258 101.781 60.1207 100.534 61.6581C99.2031 63.2985 97.5247 64.606 95.7823 65.7816C93.8724 67.0703 91.7945 68.1936 89.4842 68.5131C88.8241 68.6045 89.1051 69.6064 89.7608 69.5157Z"
    fill="#465FFF"
  />
  <path
    d="M88.4266 76.5722C85.805 78.8001 81.9537 81.2515 81.6633 85.0427C81.3863 88.6596 85.3042 92.8565 89.0158 92.3418C89.9295 92.2152 90.6765 91.7773 91.4331 91.2812C92.6377 90.4915 93.8051 89.6437 94.9684 88.7951C95.5039 88.4046 94.9854 87.5021 94.4434 87.8973C93.31 88.724 92.1726 89.5484 91.0018 90.3218C90.215 90.8415 89.4549 91.3242 88.4772 91.3478C86.1286 91.4045 84.0143 89.2929 83.1217 87.2849C81.197 82.9546 86.3798 79.6718 89.1622 77.3074C89.6729 76.8734 88.9341 76.141 88.4266 76.5722Z"
    fill="#465FFF"
  />
  <path
    d="M90.7855 74.4621C90.1612 75.023 89.5433 75.5911 88.9327 76.1669C88.4448 76.6271 89.1814 77.3614 89.6683 76.9021C90.2789 76.3261 90.8967 75.7581 91.5211 75.1973C92.0201 74.7491 91.2824 74.0158 90.7855 74.4621Z"
    fill="#465FFF"
  />
  <path
    d="M105.811 113.389C108.39 111.662 110.663 109.492 112.428 106.932C113.96 104.711 115.036 101.773 113.667 99.2015C112.445 96.908 109.688 96.3065 107.3 96.2641C103.901 96.2037 100.419 96.7839 97.1095 97.5139C96.456 97.6581 96.7325 98.6606 97.386 98.5165C100.304 97.8729 103.28 97.4281 106.268 97.3158C108.462 97.2334 111.341 97.4053 112.631 99.4888C114.147 101.936 112.692 104.841 111.187 106.888C109.569 109.088 107.552 110.974 105.286 112.492C104.732 112.862 105.253 113.763 105.811 113.389Z"
    fill="#465FFF"
  />
  <path
    d="M100.293 110.115C102.248 110.121 104.203 110.127 106.157 110.132C106.827 110.133 106.828 109.094 106.157 109.092C104.202 109.087 102.247 109.081 100.293 109.076C99.623 109.074 99.6221 110.114 100.293 110.115Z"
    fill="#465FFF"
  />
  <path
    d="M16.5671 126.471C16.4143 127.944 15.8329 129.417 15.3345 130.799C14.5014 133.109 13.5492 135.376 12.5575 137.622C10.2286 142.897 7.6691 148.082 4.85284 153.114C3.46808 155.588 2.02062 158.037 0.388906 160.358C0.00319198 160.906 0.90473 161.426 1.28717 160.883C4.41876 156.429 6.98335 151.556 9.41967 146.697C11.8808 141.789 14.2234 136.783 16.134 131.632C16.748 129.977 17.424 128.24 17.6075 126.471C17.6763 125.806 16.6355 125.81 16.5671 126.471Z"
    fill="#465FFF"
  />
  <path
    d="M67.1933 153.271C63.9316 159.174 60.7311 165.11 57.4981 171.029C56.7888 172.327 56.0798 173.626 55.3643 174.921C55.0404 175.507 55.9384 176.032 56.2625 175.446C59.5242 169.543 62.7247 163.607 65.9577 157.688C66.667 156.39 67.376 155.091 68.0916 153.796C68.4154 153.21 67.5174 152.685 67.1933 153.271Z"
    fill="#465FFF"
  />
  <path
    d="M94.69 72.1335C94.3711 70.8413 94.0522 69.5491 93.7333 68.2568C93.5731 67.6075 92.5696 67.8826 92.7302 68.5333C93.0491 69.8255 93.368 71.1176 93.6869 72.4099C93.8471 73.0591 94.8506 72.7841 94.69 72.1335Z"
    fill="#161950"
  />
  <path
    d="M89.6692 53.2366C88.2434 47.7686 86.8177 42.3007 85.3919 36.8327C84.2992 32.642 83.2098 28.4505 82.1087 24.262C81.1783 20.7231 80.248 17.1843 79.3176 13.6455C78.6228 11.0028 78.1466 8.01903 76.6338 5.69781C73.947 1.57516 68.8664 -0.31711 64.1238 0.883433C62.8827 1.19763 61.6468 1.53383 60.4086 1.85898C53.9222 3.56209 47.4359 5.26521 40.9496 6.96833C34.1693 8.74862 27.3889 10.529 20.6086 12.3093C19.0425 12.7206 17.4754 13.1281 15.9102 13.543C12.0523 14.5656 8.92216 17.3583 7.69809 21.1942C6.59884 24.6388 7.60077 27.7759 8.46682 31.0706C9.57588 35.2897 10.6848 39.5087 11.7939 43.7278C13.4588 50.0614 15.1237 56.395 16.7886 62.7287C18.7434 70.1654 20.6982 77.6021 22.6531 85.0389C24.6321 92.5672 26.611 100.096 28.5899 107.624C30.3328 114.254 32.0757 120.885 33.8185 127.515C35.0456 132.183 36.2725 136.851 37.4995 141.519C38.0143 143.477 38.4299 145.499 39.0783 147.42C40.7731 152.441 45.897 155.733 51.1751 155.122C52.6206 154.955 54.0497 154.494 55.4536 154.125C61.6144 152.508 67.7751 150.89 73.9359 149.272C80.9438 147.432 87.9518 145.592 94.9597 143.752C96.845 143.257 98.7303 142.762 100.616 142.267C103.713 141.454 106.404 139.799 108.11 137.015C109.488 134.766 110.045 132.073 109.677 129.462C109.544 128.52 109.274 127.6 109.036 126.68C108.154 123.272 107.273 119.864 106.391 116.456C105.826 114.271 105.261 112.086 104.696 109.9C104.528 109.253 103.525 109.527 103.693 110.177C105.139 115.77 106.586 121.363 108.033 126.956C108.274 127.886 108.56 128.826 108.678 129.781C109.013 132.486 108.241 135.267 106.57 137.419C104.849 139.637 102.473 140.704 99.853 141.392C94.4933 142.799 89.1336 144.207 83.7739 145.614C76.6108 147.495 69.4476 149.376 62.2844 151.257C59.8195 151.904 57.3545 152.551 54.8894 153.198C53.3055 153.614 51.7076 154.132 50.0582 154.157C45.2734 154.228 41.0967 150.949 39.8508 146.372C39.6892 145.778 39.5378 145.181 39.3813 144.586C38.4574 141.071 37.5335 137.556 36.6096 134.041C35.0899 128.26 33.5702 122.478 32.0505 116.697C30.1765 109.568 28.3025 102.439 26.4285 95.3096C24.4666 87.8458 22.5047 80.3821 20.5427 72.9182C18.7309 66.0256 16.9191 59.1331 15.1072 52.2405C13.7114 46.9302 12.3155 41.62 10.9197 36.3099C10.1834 33.5093 9.44731 30.7085 8.71108 27.9079C8.18112 25.8918 8.01774 23.8575 8.59751 21.8161C9.66224 18.067 12.6549 15.4731 16.3575 14.501C21.093 13.2576 25.8284 12.0141 30.5639 10.7707C37.8142 8.86703 45.0643 6.96333 52.3146 5.05963C56.3361 4.00373 60.3502 2.91218 64.3808 1.89137C69.3459 0.633924 74.6417 3.13756 76.6319 7.90898C77.5884 10.2019 78.0212 12.8064 78.6498 15.1977C79.8432 19.7369 81.0422 24.2747 82.2264 28.8164C83.9466 35.4138 85.6668 42.0112 87.3871 48.6087C87.8134 50.2435 88.2397 51.8784 88.666 53.5133C88.8347 54.1599 89.8384 53.8856 89.6692 53.2366Z"
    fill="#161950"
  />
  <path
    d="M100.958 96.707C100.137 93.2894 99.315 89.8718 98.4933 86.4542C98.3369 85.8039 97.3335 86.0793 97.4902 86.7307C98.3119 90.1482 99.1336 93.5658 99.9553 96.9834C100.112 97.6337 101.115 97.3583 100.958 96.707Z"
    fill="#161950"
  />
  <path
    d="M94.205 88.4842C95.0522 91.7074 95.8993 94.9305 96.7465 98.1535C96.9164 98.8001 97.9202 98.526 97.7496 97.8771C96.9024 94.654 96.0553 91.4308 95.2081 88.2078C95.0381 87.5612 94.0344 87.8354 94.205 88.4842Z"
    fill="#465FFF"
  />
  <path
    d="M89.219 69.4833C89.6696 71.2318 90.1202 72.9804 90.5708 74.7288C90.7377 75.3763 91.7413 75.1018 91.5739 74.4524C91.1233 72.7039 90.6727 70.9554 90.222 69.2069C90.0551 68.5594 89.0515 68.8339 89.219 69.4833Z"
    fill="#465FFF"
  />
  <path
    d="M92.0967 74.7692C95.2506 71.8579 101.552 67.0934 104.815 72.4283C107.398 76.6498 103.409 80.9906 100.354 83.6063C98.7046 85.0185 96.9187 86.2542 95.1012 87.4378C94.5424 87.8016 95.0631 88.7022 95.6263 88.3355C99.4558 85.8416 103.823 82.8887 105.859 78.6453C106.876 76.5264 107.012 74.1722 105.823 72.0887C104.431 69.6491 102 68.5011 99.2526 69.1384C96.2288 69.8396 93.5926 71.9741 91.3611 74.0341C90.8683 74.4891 91.6053 75.2229 92.0967 74.7692Z"
    fill="#465FFF"
  />
  <path
    d="M97.136 97.5363C93.7269 98.0158 88.1879 99.9933 88.987 104.418C89.8981 109.461 95.553 110.079 99.7022 110.088C100.372 110.089 100.373 109.05 99.7022 109.048C96.0984 109.041 90.9848 108.735 90.033 104.355C89.195 100.5 94.5961 98.9349 97.4124 98.5387C98.0727 98.446 97.7918 97.444 97.136 97.5363Z"
    fill="#465FFF"
  />
</svg>
